<svg width="800" height="600" viewBox="0 0 800 600" fill="none" xmlns="http://www.w3.org/2000/svg" role="img" aria-label="Flat vector illustration of a survey clipboard with checkmarks and a colorful map of neighborhood blocks, Capitol dome in the skyline behind">
<g transform="translate(-800 0)">
  <rect width="2400" height="600" fill="#FBF8ED"/>
  <!-- gold bridge tower anchors the far left -->
  <g fill="#F3CB4A">
    <rect x="42" y="140" width="16" height="245"/>
    <rect x="84" y="140" width="16" height="245"/>
    <rect x="42" y="140" width="58" height="14"/>
    <rect x="42" y="216" width="58" height="12"/>
    <path d="M46 228 L96 300 M96 228 L46 300" stroke="#F3CB4A" stroke-width="9"/>
    <rect x="42" y="300" width="58" height="12"/>
  </g>
  <!-- continuous downtown silhouette: varied building forms, capitol as silhouette -->
  <g fill="#4E9B91">
    <rect x="150" y="210" width="70" height="180"/>
    <path d="M242 390 v-200 h40 l15 -30 15 30 v200 Z"/>
    <rect x="560" y="190" width="60" height="200"/>
    <path d="M700 390 v-140 h60 v-18 h15 v18 h10 v140 Z"/>
    <rect x="900" y="175" width="65" height="215"/>
    <path d="M1012 390 v-230 h36 l16 -26 16 26 v230 Z"/>
    <path d="M1108 390 v-90 h24 v-32 a36 36 0 0 1 34 -36 v-14 a7 7 0 0 1 14 0 v14 a36 36 0 0 1 34 36 v32 h24 v90 Z"/>
    <rect x="1310" y="200" width="60" height="190"/>
    <rect x="1422" y="165" width="58" height="225"/>
    <path d="M1700 390 v-185 h50 v-20 h12 v20 h12 v185 Z"/>
    <rect x="1812" y="150" width="50" height="240"/>
    <path d="M2120 390 v-175 h44 l14 -24 14 24 v175 Z"/>
    <rect x="2232" y="228" width="72" height="162"/>
  </g>
  <!-- layered deep canopy: lumpy blob clusters like the hero art -->
  <g fill="#0A5750">
    <path d="M-40 460 q-4 -70 60 -78 q10 -44 62 -42 q46 2 56 40 q58 -6 66 46 q40 2 40 44 v50 h-284 Z"/>
    <path d="M240 470 q0 -62 56 -70 q12 -40 58 -38 q44 2 54 36 q52 -4 60 42 q36 4 36 40 v40 h-264 Z"/>
    <path d="M540 464 q-2 -66 58 -74 q10 -42 60 -40 q46 2 56 38 q54 -4 62 44 q38 2 38 42 v46 h-274 Z"/>
    <path d="M840 470 q0 -60 54 -68 q12 -38 56 -36 q42 2 52 34 q50 -4 58 40 q34 4 34 38 v42 h-254 Z"/>
    <path d="M1120 464 q-2 -64 56 -72 q10 -40 58 -38 q44 2 54 36 q52 -4 60 42 q36 2 36 40 v42 h-264 Z"/>
    <path d="M1410 470 q0 -62 56 -70 q12 -40 58 -38 q44 2 54 36 q52 -4 60 42 q36 4 36 40 v40 h-264 Z"/>
    <path d="M1700 464 q-2 -66 58 -74 q10 -42 60 -40 q46 2 56 38 q54 -4 62 44 q38 2 38 42 v46 h-274 Z"/>
    <path d="M2000 470 q0 -60 54 -68 q12 -38 56 -36 q42 2 52 34 q50 -4 58 40 q34 4 34 38 v42 h-254 Z"/>
    <path d="M2280 464 q-2 -64 56 -72 q10 -40 58 -38 q44 2 54 36 l-8 74 h-160 Z"/>
  </g>
  <!-- olive accent trees with trunks, in front of the canopy -->
  <g>
    <rect x="332" y="420" width="9" height="50" fill="#014543"/>
    <circle cx="336" cy="404" r="38" fill="#74831E"/>
    <rect x="1052" y="426" width="9" height="46" fill="#014543"/>
    <ellipse cx="1056" cy="408" rx="34" ry="38" fill="#74831E"/>
    <rect x="1852" y="422" width="9" height="48" fill="#014543"/>
    <circle cx="1856" cy="404" r="36" fill="#74831E"/>
  </g>
  <!-- ground -->
  <rect y="452" width="2400" height="148" fill="#3E7A4A"/>
  <rect y="452" width="2400" height="12" fill="#2E5D45"/>
  <!-- one sand path winding through all three scenes -->
  <path d="M0 566 C 300 522 500 596 800 552 C 1100 508 1300 592 1600 550 C 1900 508 2150 588 2400 540 L2400 600 L0 600 Z" fill="#FBDD9F"/>
  <!-- dark foreground bushes, hero-art style -->
  <g fill="#014543">
    <path d="M-30 600 q6 -52 58 -54 q40 -2 52 30 q44 -4 52 34 l0 -10 v0 Z M-30 600 h164 v0 h-164 Z"/>
    <ellipse cx="120" cy="596" rx="90" ry="34"/>
    <ellipse cx="740" cy="600" rx="80" ry="30"/>
    <ellipse cx="1240" cy="596" rx="86" ry="32"/>
    <ellipse cx="1720" cy="600" rx="78" ry="30"/>
    <ellipse cx="2320" cy="596" rx="88" ry="34"/>
  </g>
</g>

  <g transform="translate(96 220) rotate(-4)">
    <rect x="-18" y="-18" width="260" height="240" rx="14" fill="#F7ECCC"/>
    <g>
      <rect x="0" y="0" width="48" height="48" rx="6" fill="#5DA145"/>
      <rect x="58" y="0" width="48" height="48" rx="6" fill="#479FB3"/>
      <rect x="116" y="0" width="48" height="48" rx="6" fill="#F3CB4A"/>
      <rect x="174" y="0" width="48" height="48" rx="6" fill="#004447"/>
      <rect x="0" y="58" width="48" height="48" rx="6" fill="#EC8A1F"/>
      <rect x="58" y="58" width="48" height="48" rx="6" fill="#004447"/>
      <rect x="116" y="58" width="48" height="48" rx="6" fill="#7CD1E8"/>
      <rect x="174" y="58" width="48" height="48" rx="6" fill="#5DA145"/>
      <rect x="0" y="116" width="48" height="48" rx="6" fill="#479FB3"/>
      <rect x="58" y="116" width="48" height="48" rx="6" fill="#F3CB4A"/>
      <rect x="116" y="116" width="48" height="48" rx="6" fill="#368A59"/>
      <rect x="174" y="116" width="48" height="48" rx="6" fill="#EC8A1F"/>
      <rect x="0" y="174" width="48" height="30" rx="6" fill="#004447"/>
      <rect x="58" y="174" width="48" height="30" rx="6" fill="#7CD1E8"/>
      <rect x="116" y="174" width="48" height="30" rx="6" fill="#5DA145"/>
      <rect x="174" y="174" width="48" height="30" rx="6" fill="#479FB3"/>
    </g>
    <path d="M198 -6 l7.6 15.4 17 2.5 -12.3 12 2.9 16.9 -15.2 -8 -15.2 8 2.9 -16.9 -12.3 -12 17 -2.5 Z" fill="#EC8A1F" stroke="#F7ECCC" stroke-width="5"/>
  </g>
  <g transform="translate(430 130) rotate(3)">
    <rect x="0" y="0" width="250" height="360" rx="18" fill="#004447"/>
    <rect x="16" y="34" width="218" height="308" rx="10" fill="#F7ECCC"/>
    <rect x="86" y="-16" width="78" height="44" rx="10" fill="#479FB3"/>
    <rect x="106" y="-4" width="38" height="18" rx="8" fill="#F7ECCC"/>
    <g>
      <rect x="38" y="62" width="30" height="30" rx="7" fill="#5DA145"/>
      <path d="M45 77 l8 9 14-16" stroke="#F7ECCC" stroke-width="6" stroke-linecap="round" stroke-linejoin="round" fill="none"/>
      <rect x="82" y="70" width="130" height="12" rx="6" fill="#004447"/>
      <rect x="38" y="118" width="30" height="30" rx="7" fill="#5DA145"/>
      <path d="M45 133 l8 9 14-16" stroke="#F7ECCC" stroke-width="6" stroke-linecap="round" stroke-linejoin="round" fill="none"/>
      <rect x="82" y="126" width="106" height="12" rx="6" fill="#479FB3"/>
      <rect x="38" y="174" width="30" height="30" rx="7" fill="#F3CB4A"/>
      <rect x="82" y="182" width="130" height="12" rx="6" fill="#004447"/>
      <rect x="38" y="230" width="30" height="30" rx="7" fill="#F3CB4A"/>
      <rect x="82" y="238" width="88" height="12" rx="6" fill="#479FB3"/>
      <rect x="38" y="292" width="174" height="12" rx="6" fill="#7CD1E8"/>
    </g>
  </g>
  <g transform="translate(388 470) rotate(-18)">
    <rect x="0" y="0" width="190" height="34" rx="6" fill="#EC8A1F"/>
    <rect x="150" y="0" width="40" height="34" rx="6" fill="#479FB3"/>
    <path d="M0 0 L-34 17 L0 34 Z" fill="#F7ECCC"/>
    <path d="M-34 17 L-16 8 L-16 26 Z" fill="#004447"/>
  </g>

</svg>
