<svg width="800" height="600" viewBox="0 0 800 600" fill="none" xmlns="http://www.w3.org/2000/svg" role="img" aria-label="Flat vector illustration of raised community garden beds with tomatoes, sprouts, and corn, downtown skyline behind">
<g transform="translate(-1600 0)">
  <rect width="2400" height="600" fill="#7AB6A4"/>
  <!-- clouds: mixed puffy + ellipse forms, echoing the hero banner -->
  <g fill="#F7ECCC">
    <ellipse cx="140" cy="80" rx="58" ry="20"/><ellipse cx="184" cy="66" rx="36" ry="15"/>
    <path d="M620 118 a26 26 0 0 1 26 -26 a30 30 0 0 1 56 -8 a24 24 0 0 1 34 22 q0 12 -12 12 h-92 q-12 0 -12 -12 Z"/>
    <ellipse cx="1080" cy="70" rx="56" ry="19"/>
    <path d="M1500 104 a22 22 0 0 1 22 -22 a26 26 0 0 1 48 -7 a20 20 0 0 1 30 19 q0 10 -10 10 h-80 q-10 0 -10 -10 Z"/>
    <ellipse cx="1980" cy="74" rx="58" ry="20"/><ellipse cx="2026" cy="60" rx="34" ry="14"/>
    <path d="M2260 122 a24 24 0 0 1 24 -24 a28 28 0 0 1 52 -8 a22 22 0 0 1 32 20 q0 12 -12 12 h-84 q-12 0 -12 -12 Z"/>
  </g>
  <!-- gold bridge tower anchors the far left -->
  <g fill="#F3CB4A">
    <rect x="42" y="140" width="16" height="245"/>
    <rect x="84" y="140" width="16" height="245"/>
    <rect x="42" y="140" width="58" height="14"/>
    <rect x="42" y="216" width="58" height="12"/>
    <path d="M46 228 L96 300 M96 228 L46 300" stroke="#F3CB4A" stroke-width="9"/>
    <rect x="42" y="300" width="58" height="12"/>
  </g>
  <!-- continuous downtown silhouette: varied building forms -->
  <g fill="#35917E">
    <rect x="150" y="210" width="70" height="180"/>
    <path d="M242 390 v-200 h40 l15 -30 15 30 v200 Z"/>
    <rect x="560" y="190" width="60" height="200"/>
    <path d="M700 390 v-140 h60 v-18 h15 v18 h10 v140 Z"/>
    <rect x="900" y="175" width="65" height="215"/>
    <path d="M1012 390 v-230 h36 l16 -26 16 26 v230 Z"/>
    <rect x="1310" y="200" width="60" height="190"/>
    <rect x="1422" y="165" width="58" height="225"/>
    <path d="M1700 390 v-185 h50 v-20 h12 v20 h12 v185 Z"/>
    <rect x="1812" y="150" width="50" height="240"/>
    <path d="M2120 390 v-175 h44 l14 -24 14 24 v175 Z"/>
    <rect x="2232" y="228" width="72" height="162"/>
  </g>
  <!-- capitol dome, mid-panorama -->
  <g>
    <rect x="1108" y="300" width="120" height="90" fill="#F7ECCC"/>
    <path d="M1132 300 v-38 a36 36 0 0 1 72 0 v38 Z" fill="#F7ECCC"/>
    <circle cx="1168" cy="252" r="7" fill="#F7ECCC"/>
    <g fill="#35917E">
      <rect x="1122" y="316" width="10" height="60"/><rect x="1144" y="316" width="10" height="60"/>
      <rect x="1166" y="316" width="10" height="60"/><rect x="1188" y="316" width="10" height="60"/>
      <rect x="1210" y="316" width="8" height="60"/>
    </g>
  </g>
  <!-- tree canopy: round, blob, and oval forms mixed per scene -->
  <g fill="#368A59">
    <circle cx="70" cy="392" r="56"/>
    <path d="M220 452 q-60 0 -60 -46 q0 -34 34 -40 q6 -30 40 -30 q34 0 40 30 q34 6 34 40 q0 46 -60 46 Z" transform="translate(-14 -4)"/>
    <ellipse cx="360" cy="402" rx="56" ry="44"/>
    <circle cx="500" cy="408" r="44"/>
    <path d="M660 452 q-52 0 -52 -40 q0 -30 30 -36 q6 -26 36 -26 q30 0 36 26 q30 6 30 36 q0 40 -52 40 Z"/>
    <ellipse cx="800" cy="404" rx="50" ry="42"/>
    <circle cx="930" cy="392" r="52"/>
    <ellipse cx="1070" cy="408" rx="52" ry="40"/>
    <path d="M1250 452 q-56 0 -56 -44 q0 -32 32 -38 q6 -28 38 -28 q32 0 38 28 q32 6 32 38 q0 44 -56 44 Z" transform="translate(-20 -6)"/>
    <circle cx="1380" cy="408" r="44"/>
    <ellipse cx="1520" cy="396" rx="58" ry="46"/>
    <circle cx="1660" cy="404" r="48"/>
    <path d="M1830 452 q-54 0 -54 -42 q0 -32 32 -38 q6 -26 36 -26 q30 0 36 26 q32 6 32 38 q0 42 -54 42 Z" transform="translate(-16 -2)"/>
    <ellipse cx="1950" cy="406" rx="48" ry="40"/>
    <circle cx="2090" cy="396" r="52"/>
    <ellipse cx="2230" cy="410" rx="46" ry="38"/>
    <circle cx="2360" cy="394" r="52"/>
  </g>
  <g fill="#2B6E49">
    <ellipse cx="0" cy="424" rx="46" ry="36"/><circle cx="420" cy="424" r="40"/><ellipse cx="860" cy="424" rx="46" ry="36"/>
    <circle cx="1300" cy="424" r="40"/><ellipse cx="1740" cy="424" rx="44" ry="36"/><circle cx="2180" cy="424" r="40"/><ellipse cx="2400" cy="420" rx="46" ry="38"/>
  </g>
  <!-- one fall tree, garden end (echoes the hero's autumn tree) -->
  <g>
    <rect x="2286" y="404" width="10" height="52" fill="#7A4A21"/>
    <ellipse cx="2291" cy="388" rx="34" ry="38" fill="#EC8A1F"/>
  </g>
  <!-- ground -->
  <rect y="440" width="2400" height="160" fill="#5DA145"/>
  <rect y="440" width="2400" height="14" fill="#4C8F3D"/>
  <!-- one sand path winding through all three scenes -->
  <path d="M0 566 C 300 522 500 596 800 552 C 1100 508 1300 592 1600 550 C 1900 508 2150 588 2400 540 L2400 600 L0 600 Z" fill="#FBDD9F"/>
</g>

  <g>
    <g transform="translate(90 445)">
      <rect x="0" y="0" width="270" height="76" rx="10" fill="#004447"/>
      <rect x="12" y="-16" width="246" height="26" rx="7" fill="#01332F"/>
      <g stroke="#368A59" stroke-width="9" stroke-linecap="round">
        <line x1="55" y1="-16" x2="55" y2="-88"/><line x1="135" y1="-16" x2="135" y2="-100"/><line x1="215" y1="-16" x2="215" y2="-84"/>
      </g>
      <circle cx="55" cy="-98" r="23" fill="#5DA145"/><circle cx="135" cy="-112" r="26" fill="#5DA145"/><circle cx="215" cy="-94" r="22" fill="#5DA145"/>
      <circle cx="42" cy="-84" r="10" fill="#EC8A1F"/><circle cx="148" cy="-98" r="11" fill="#EC8A1F"/><circle cx="226" cy="-80" r="9" fill="#EC8A1F"/>
      <circle cx="68" cy="-108" r="8" fill="#F3CB4A"/><circle cx="122" cy="-124" r="8" fill="#F3CB4A"/>
    </g>
    <g transform="translate(410 470)">
      <rect x="0" y="0" width="230" height="66" rx="10" fill="#004447"/>
      <rect x="12" y="-15" width="206" height="24" rx="7" fill="#01332F"/>
      <g fill="#5DA145">
        <path d="M45 -15 c-18 -22 -18 -38 0 -50 c18 12 18 28 0 50 Z"/>
        <path d="M115 -15 c-18 -22 -18 -38 0 -50 c18 12 18 28 0 50 Z"/>
        <path d="M185 -15 c-18 -22 -18 -38 0 -50 c18 12 18 28 0 50 Z"/>
      </g>
    </g>
  </g>
  <g>
    <g stroke="#368A59" stroke-width="10" stroke-linecap="round">
      <line x1="700" y1="470" x2="700" y2="330"/>
      <line x1="740" y1="480" x2="740" y2="360"/>
    </g>
    <path d="M700 380 C678 370 668 350 670 332 C690 340 700 356 700 380 Z" fill="#5DA145"/>
    <path d="M700 420 C722 410 732 390 730 372 C710 380 700 396 700 420 Z" fill="#5DA145"/>
    <path d="M740 410 C718 400 710 382 712 366 C730 373 740 388 740 410 Z" fill="#5DA145"/>
    <ellipse cx="700" cy="322" rx="12" ry="24" fill="#F3CB4A"/>
    <ellipse cx="740" cy="352" rx="10" ry="20" fill="#F3CB4A"/>
  </g>
  <g transform="translate(500 400)">
    <rect x="20" y="0" width="16" height="92" fill="#01332F"/>
    <rect x="104" y="0" width="16" height="92" fill="#01332F"/>
    <rect x="-10" y="-64" width="160" height="74" rx="12" fill="#F7ECCC"/>
    <rect x="8" y="-46" width="124" height="12" rx="6" fill="#004447"/>
    <rect x="24" y="-24" width="92" height="12" rx="6" fill="#5DA145"/>
  </g>
  <g transform="translate(300 540)">
    <rect x="0" y="0" width="56" height="40" rx="8" fill="#479FB3"/>
    <path d="M0 10 L-30 -6 L-26 4 L0 20 Z" fill="#479FB3"/>
    <circle cx="-30" cy="-4" r="8" fill="#479FB3"/>
    <path d="M56 8 a20 20 0 0 1 0 24" stroke="#479FB3" stroke-width="8" fill="none"/>
    <g stroke="#7CD1E8" stroke-width="5" stroke-linecap="round">
      <line x1="-40" y1="4" x2="-46" y2="16"/><line x1="-32" y1="8" x2="-36" y2="20"/>
    </g>
  </g>

</svg>
