<svg width="345" height="345" viewBox="0 0 345 345" fill="none" xmlns="http://www.w3.org/2000/svg">
<g id="Final Logo Package">
<g id="MNENA-logo-blue-white">
<circle id="Ellipse 10" cx="172.284" cy="172.284" r="172.284" fill="#004447"/>
<g id="MSNENA-3Color-knockout">
<path id="Subtract" d="M183.211 42.5889H183.212V34.9277C183.575 35.1757 184.114 35.4481 184.747 35.7676C187.353 37.0828 191.553 39.202 191.619 43.7559C207.889 47.5993 226.985 60.5726 233.848 79.1348C258.968 85.3269 279.947 92.2308 281.576 92.9512C284.59 94.2837 293.47 96.0605 293.629 106.128C293.788 116.196 293.629 220.3 293.629 225.487C293.629 230.669 293.629 242.515 284.748 258.061C273.062 275.204 237.328 290.19 182.455 310.029C176.687 312.115 165.962 311.362 161.997 310.029C133.133 300.329 78.7349 279.825 59.0693 258.061C53.1694 251.531 49.8711 239.405 49.8711 225.487V106.128C49.8712 100.354 53.6774 95.9123 59.0693 94.4316C62.0719 93.6072 84.4245 85.8539 110.19 79.1436C117.606 58.6783 138.768 47.4746 151.726 43.8828C151.71 43.8772 151.694 43.871 151.678 43.8652C151.678 39.1394 155.628 37.0048 158.07 35.6855C158.597 35.401 159.054 35.1543 159.386 34.9277V31.7363H183.211V42.5889ZM170.525 51.8809C142.081 51.8809 118.921 74.6089 118.068 102.969C115.166 102.985 112.302 103.004 109.503 103.025C98.8995 103.107 89.2189 103.229 81.8779 103.412C78.209 103.504 75.1146 103.611 72.7783 103.736C71.6112 103.799 70.622 103.867 69.8408 103.94C69.0884 104.012 68.4439 104.095 68.0166 104.208C62.5819 105.641 58.591 110.014 58.5908 115.793V222.467C58.5909 234.843 61.6322 245.922 67.3799 252.029C76.5894 261.815 93.777 271.196 111.789 279.162C129.859 287.154 148.972 293.809 162.211 298.081C164.216 298.728 167.72 299.143 171.323 299.204C174.936 299.265 178.878 298.974 181.757 298.087C204.746 291.004 225.559 283.326 241.982 275.518C258.335 267.743 270.571 259.732 276.142 251.886L276.173 251.842L276.2 251.795C284.511 237.829 284.523 227.135 284.523 222.467C284.523 217.924 284.669 124.642 284.523 115.771C284.442 110.838 282.092 107.857 279.4 106.011C276.863 104.27 273.775 103.44 272.665 102.969C272.42 102.865 272.14 102.81 271.932 102.776C271.692 102.737 271.407 102.704 271.09 102.675C270.453 102.616 269.616 102.568 268.613 102.527C266.603 102.446 263.855 102.396 260.541 102.368C253.909 102.313 244.955 102.35 234.978 102.423C231.727 102.447 228.367 102.476 224.942 102.506C223.772 74.5876 199.213 52.2411 171.204 51.8848L170.525 51.8809ZM129.727 264.474C159.952 262.962 187.854 275.336 208.312 276.7C219.647 277.456 239.797 274.297 249.872 268.252C248.017 269.365 245.433 270.84 241.675 272.681C241.394 272.816 241.112 272.953 240.828 273.088C239.352 273.79 237.839 274.49 236.292 275.189C233.313 276.515 229.815 277.982 225.691 279.586C212.797 284.6 204.534 284.12 193.2 281.854C181.23 279.459 158.441 272.03 134.261 272.03C125.514 272.03 118.641 276.48 115.679 277.926C114.743 277.521 113.808 277.114 112.877 276.702C112.337 276.463 111.798 276.223 111.261 275.982L102.011 271.271C106.796 269.508 115.338 265.193 129.727 264.474ZM234.998 105.113C244.975 105.04 253.909 105.003 260.519 105.058C263.825 105.085 266.538 105.136 268.505 105.215C269.49 105.255 270.272 105.301 270.842 105.354C271.127 105.38 271.344 105.407 271.497 105.432C271.589 105.447 271.637 105.457 271.652 105.461L271.932 105.575C273.559 106.217 275.765 106.78 277.879 108.229C279.98 109.67 281.77 111.897 281.834 115.815C281.979 124.656 281.833 217.889 281.833 222.467C281.833 226.906 281.844 237.022 273.917 250.369C271.067 254.365 266.225 258.522 259.703 262.756C255.121 264.921 248.196 267.591 237.782 269.761C230.962 271.182 218.891 272.027 207.557 270.516C200.029 269.512 155.418 255.403 128.216 255.403C112.986 255.403 87.5312 258.237 82.0703 260.476C76.9618 257.103 72.6043 253.655 69.3389 250.186C64.2799 244.81 61.2804 234.564 61.2803 222.467V115.793C61.2805 111.419 64.2619 107.98 68.7031 106.81C68.8933 106.76 69.3362 106.691 70.0938 106.619C70.8237 106.55 71.7723 106.485 72.9219 106.423C75.2202 106.299 78.2857 106.192 81.9453 106.101C89.2626 105.918 98.9246 105.796 109.523 105.715C130.72 105.552 155.641 105.553 172.999 105.553C190.943 105.553 215.054 105.26 234.998 105.113ZM144.556 161.488V243.183H138.417V219.398L117.734 200.784L96.5371 218.127C96.5947 216.753 97.6713 211.14 96.5322 208.608C95.3623 206.009 93.9323 205.099 91.9824 205.099C92.7625 200.938 89.5118 196.648 86.2617 196.648C78.7226 196.649 79.1116 206.398 80.0215 207.179C78.7216 208.088 77.1609 207.18 74.8213 212.249C73.9117 217.708 76.1214 217.709 75.7314 218.749C75.3412 219.789 74.3018 221.87 74.3018 225.379C74.3018 228.889 75.0819 230.58 78.7217 233.439C80.4461 234.794 82.6671 235.302 84.7891 235.352C84.8693 232.692 84.9398 230.22 84.9961 227.958L79.6074 219.757C79.41 219.456 79.4934 219.051 79.7939 218.854C80.095 218.656 80.4993 218.74 80.6973 219.041L85.0508 225.665C85.2462 217.368 85.3105 212.433 85.4824 212.249C85.8724 211.859 87.0426 211.859 87.1729 212.249C87.3032 213.164 87.2038 217.121 87.2539 223.729L91.5762 217.469C91.7808 217.172 92.1869 217.097 92.4834 217.302C92.7796 217.506 92.8538 217.913 92.6494 218.209L87.2773 225.992C87.3102 228.694 87.3718 231.765 87.4785 235.184C88.7678 234.996 89.896 234.68 90.6816 234.35C92.5768 233.552 93.9842 232.179 94.9844 230.814V247.425C99.6375 247.06 109.199 246.25 118.827 246.086V224.646H129.207V246.322H129.148C140.138 247.082 153.835 249.367 164.286 251.855C166.864 252.469 170.023 253.258 173.576 254.136V223.535H183.917V256.626C196.582 259.563 211.429 262.505 223.056 262.694C232.575 262.849 242.426 260.496 249.905 258.002C250.035 254.954 250.15 252.005 250.25 249.173C244.928 248.203 238.709 247.429 233.328 247.429V218.273L216.72 202.522L199.43 218.273V243.183H194.93V161.488H144.556ZM254.021 249.923C254.118 252.011 254.229 254.172 254.357 256.402C259.161 254.547 262.272 252.902 262.51 252.49C261.79 251.901 258.486 250.889 254.021 249.923ZM165.567 223.897V239.163H154.577V223.897H165.567ZM113.026 224.646V238.689H103.257V224.646H113.026ZM213.666 224.341V238.689H205.118V224.341H213.666ZM227.099 224.341V238.689H218.55V224.341H227.099ZM252.401 183.723C242.48 183.723 242.938 191.659 243.243 193.339C241.564 193.339 238.511 193.797 237.29 196.85C235.764 200.665 236.984 202.956 238.663 204.94C232.405 212.115 234.389 218.373 236.068 222.647C238.312 235.711 246.259 236.568 250.64 236.561C250.691 234.622 250.738 232.776 250.779 231.035L244.525 221.518C244.328 221.217 244.411 220.811 244.712 220.613C245.013 220.416 245.417 220.5 245.615 220.801L250.833 228.741C251.053 218.949 251.13 212.971 251.328 212.764C251.786 212.306 253.16 212.306 253.312 212.764C253.463 213.818 253.355 218.626 253.406 226.448L258.577 218.957C258.782 218.661 259.188 218.586 259.484 218.79C259.78 218.995 259.855 219.401 259.651 219.697L253.426 228.716C253.45 231.093 253.493 233.708 253.559 236.543C256.885 236.558 260.948 236.454 264.767 233.181C268.186 230.25 267.616 224.327 266.903 222.037C267.819 220.969 269.742 218.953 269.498 214.558C269.04 209.979 266.904 207.993 265.225 207.077C266.598 205.855 268.887 201.734 266.903 197.766C264.919 193.797 262.477 193.797 260.492 193.797C261.255 189.37 258.354 184.333 252.401 183.723ZM165.567 192.285V205.107H154.577V192.285H165.567ZM184.801 192.285V205.107H173.81V192.285H184.801ZM165.567 171.83V184.652H154.577V171.83H165.567ZM184.801 171.83V184.652H173.81V171.83H184.801ZM117.008 144.328H121.097V134.292C121.097 133.141 121.002 130.844 120.815 127.4H120.948L126.144 144.328H130.335L135.898 127.43H136.031C135.913 130.145 135.845 131.817 135.825 132.447C135.815 133.077 135.811 133.633 135.811 134.115V144.328H140.075V122.751H133.848L128.431 139.251H128.343L123.236 122.751H117.008V144.328ZM145.521 144.328H149.609V134.175C149.609 132.945 149.516 130.888 149.329 128.005H149.462L158.849 144.328H164.663V122.751H160.546V132.964C160.546 134.125 160.619 136.108 160.767 138.912H160.664L151.292 122.751H145.521V144.328ZM170.109 144.328H182.536V140.55H174.685V134.986H181.989V131.237H174.685V126.5H182.536V122.751H170.109V144.328ZM187.052 144.328H191.14V134.175C191.14 132.945 191.046 130.888 190.859 128.005H190.992L200.378 144.328H206.193V122.751H202.075V132.964C202.075 134.125 202.149 136.108 202.297 138.912H202.193L192.822 122.751H187.052V144.328ZM208.924 144.328H213.853L215.417 139.192H223.283L224.848 144.328H229.777L222.133 122.663H216.539L208.924 144.328ZM219.357 126.013C219.436 126.367 219.564 126.849 219.741 127.459C219.928 128.069 220.745 130.702 222.191 135.355H216.568C218.103 130.387 219.033 127.272 219.357 126.013ZM170.525 54.5713C197.237 54.5717 220.708 75.6291 222.219 101.898H120.806C122.197 75.5158 143.935 54.5713 170.525 54.5713ZM136.951 81.6631C135.232 84.3369 132.139 91.097 132.75 95.2217H163.306L136.951 81.6631ZM178.597 95.2217H209.151C209.762 91.097 206.669 84.3369 204.95 81.6631L178.597 95.2217ZM148.981 69.4404C146.193 70.9664 140.77 75.9338 139.051 78.9893C144.082 81.7295 157.354 87.9724 165.404 92.3564L148.981 69.4404ZM176.497 92.3564C184.547 87.9723 197.819 81.7294 202.851 78.9893C201.132 75.9339 195.708 70.9666 192.92 69.4404L176.497 92.3564ZM169.034 63.3301C165.862 63.1363 155.53 65.1738 152.229 67.7217C155.666 72.687 163.305 83.7633 169.034 91.5928V63.3301ZM172.866 63.3301V91.5928C178.595 83.7632 186.234 72.6869 189.672 67.7217C186.371 65.1738 176.039 63.1365 172.866 63.3301Z" fill="white"/>
</g>
</g>
</g>
</svg>
