<svg width="345" height="345" viewBox="0 0 345 345" fill="none" xmlns="http://www.w3.org/2000/svg">
<g id="Final Logo Package">
<g id="MNENA-logo-blue-white">
<circle id="Ellipse 10" cx="172.284" cy="172.284" r="172.284" fill="white"/>
<g id="MSNENA-3Color-knockout">
<path id="Subtract" d="M183.212 34.9279C183.575 35.1758 184.114 35.4483 184.747 35.7677C187.353 37.0829 191.553 39.2023 191.619 43.756C207.889 47.5992 226.985 60.5726 233.848 79.1349C258.968 85.327 279.947 92.231 281.576 92.9513C284.59 94.2838 293.47 96.0603 293.629 106.128C293.788 116.196 293.629 220.302 293.629 225.487C293.629 230.669 293.629 242.515 284.748 258.061C273.062 275.204 237.328 290.189 182.455 310.028C176.687 312.114 165.962 311.361 161.997 310.028C133.133 300.328 78.7361 279.825 59.0703 258.061C53.1703 251.531 49.8711 239.405 49.8711 225.487V106.128C49.8711 100.354 53.6782 95.9123 59.0703 94.4318C62.0743 93.6068 84.4256 85.8537 110.19 79.1437C117.606 58.6784 138.768 47.4748 151.726 43.8829C151.71 43.8772 151.693 43.8712 151.677 43.8654C151.677 39.1393 155.628 37.0049 158.07 35.6857C158.597 35.4011 159.054 35.1544 159.386 34.9279V42.588L159.383 42.589H159.387V31.7365H183.212V34.9279ZM170.524 51.882C142.08 51.8823 118.921 74.6093 118.068 102.969C115.166 102.985 112.302 103.004 109.503 103.026C98.8994 103.107 89.219 103.229 81.8779 103.412C78.2088 103.504 75.1146 103.611 72.7783 103.736C71.6111 103.799 70.6221 103.867 69.8408 103.941C69.0883 104.012 68.4439 104.095 68.0166 104.208C62.5819 105.641 58.591 110.014 58.5908 115.793V222.467C58.5909 234.843 61.6322 245.922 67.3799 252.029C76.5894 261.815 93.7769 271.196 111.789 279.162C129.859 287.154 148.972 293.809 162.211 298.081C164.216 298.728 167.72 299.144 171.323 299.204C174.936 299.265 178.878 298.974 181.757 298.087C204.746 291.004 225.559 283.327 241.982 275.518C258.335 267.743 270.571 259.732 276.142 251.886L276.173 251.842L276.2 251.795C284.511 237.829 284.523 227.135 284.523 222.467C284.523 217.924 284.669 124.642 284.523 115.772C284.442 110.838 282.092 107.857 279.4 106.011C276.862 104.27 273.774 103.44 272.665 102.969C272.42 102.865 272.14 102.811 271.932 102.776C271.692 102.737 271.407 102.704 271.09 102.675C270.452 102.616 269.617 102.568 268.613 102.527C266.603 102.447 263.855 102.396 260.541 102.368C253.908 102.313 244.956 102.35 234.978 102.423C231.727 102.447 228.367 102.476 224.942 102.506C223.772 74.5875 199.212 52.2419 171.203 51.8859L170.524 51.882ZM129.728 264.474C159.953 262.963 187.855 275.337 208.313 276.7C219.648 277.456 239.798 274.297 249.873 268.252C248.019 269.364 245.437 270.839 241.681 272.679C241.398 272.815 241.114 272.952 240.828 273.088C239.344 273.794 237.823 274.498 236.267 275.201C233.293 276.524 229.804 277.987 225.692 279.586C212.798 284.6 204.534 284.12 193.2 281.854C181.23 279.46 158.441 272.031 134.262 272.03C125.515 272.03 118.641 276.48 115.679 277.926C114.743 277.521 113.808 277.114 112.877 276.702C112.337 276.463 111.798 276.224 111.261 275.983L102.011 271.272C106.796 269.508 115.339 265.193 129.728 264.474ZM234.998 105.113C244.975 105.04 253.909 105.003 260.519 105.058C263.825 105.085 266.538 105.136 268.505 105.215C269.49 105.255 270.272 105.301 270.842 105.354C271.127 105.38 271.344 105.407 271.497 105.432C271.589 105.447 271.637 105.458 271.652 105.461L271.932 105.575C273.559 106.217 275.765 106.78 277.879 108.23C279.98 109.671 281.77 111.897 281.834 115.816C281.979 124.655 281.833 217.889 281.833 222.467C281.833 226.907 281.844 237.022 273.917 250.369C271.067 254.365 266.224 258.523 259.702 262.757C255.12 264.922 248.196 267.591 237.783 269.761C230.963 271.182 218.892 272.027 207.558 270.516C200.03 269.512 155.42 255.404 128.217 255.403C112.987 255.403 87.5306 258.237 82.0703 260.476C76.9618 257.103 72.6043 253.655 69.3389 250.186C64.2799 244.81 61.2803 234.564 61.2803 222.467V115.793C61.2805 111.419 64.2619 107.981 68.7031 106.81C68.8932 106.76 69.336 106.691 70.0938 106.619C70.8237 106.55 71.7722 106.485 72.9219 106.423C75.2202 106.299 78.2855 106.192 81.9453 106.101C89.2627 105.918 98.9245 105.796 109.523 105.715C130.72 105.552 155.641 105.553 172.999 105.553C190.943 105.553 215.053 105.26 234.998 105.113ZM144.556 161.488V243.183H138.417V219.399L117.734 200.784L96.5371 218.127C96.5945 216.754 97.6721 211.141 96.5332 208.609C95.3633 206.009 93.9332 205.099 91.9834 205.099C92.7634 200.939 89.5127 196.649 86.2627 196.649C78.7229 196.649 79.1125 206.399 80.0225 207.179C78.7225 208.088 77.162 207.18 74.8223 212.249C73.9127 217.708 76.1224 217.709 75.7324 218.749C75.3422 219.789 74.3028 221.87 74.3027 225.379C74.3028 228.889 75.0828 230.58 78.7227 233.44C80.4471 234.794 82.6681 235.302 84.79 235.352C84.8703 232.693 84.9408 230.22 84.9971 227.958L79.6084 219.757C79.4107 219.456 79.494 219.052 79.7949 218.854C80.096 218.656 80.5004 218.74 80.6982 219.041L85.0518 225.665C85.2473 217.363 85.3113 212.427 85.4834 212.249C85.8734 211.859 87.0436 211.859 87.1738 212.249C87.3041 213.165 87.2048 217.123 87.2549 223.729L91.5771 217.469C91.7819 217.173 92.1879 217.097 92.4844 217.302C92.78 217.507 92.8545 217.913 92.6504 218.209L87.2773 225.993C87.3102 228.695 87.3716 231.765 87.4785 235.184C88.7687 234.996 89.8977 234.681 90.6836 234.35C92.5782 233.552 93.9845 232.18 94.9844 230.816V247.425C99.6374 247.06 109.199 246.25 118.827 246.086V224.646H129.208V246.322H129.148C140.138 247.083 153.835 249.367 164.286 251.856C166.864 252.469 170.024 253.259 173.577 254.137V223.535H183.918V256.627C196.583 259.564 211.429 262.505 223.056 262.694C232.575 262.849 242.426 260.497 249.905 258.002C250.035 254.954 250.15 252.005 250.25 249.173C244.928 248.203 238.709 247.429 233.328 247.429V218.274L216.72 202.523L199.43 218.274V243.183H194.93V161.488H144.556ZM254.022 249.923C254.119 252.011 254.229 254.173 254.357 256.402C259.161 254.548 262.271 252.903 262.51 252.49C261.79 251.902 258.487 250.889 254.022 249.923ZM165.568 223.898V239.162H154.578V223.898H165.568ZM213.667 224.341V238.691H205.119V224.341H213.667ZM227.1 224.341V238.691H218.551V224.341H227.1ZM113.027 224.646V238.69H103.258V224.646H113.027ZM252.402 183.723C242.481 183.723 242.938 191.66 243.243 193.339C241.564 193.339 238.511 193.797 237.29 196.85C235.764 200.666 236.985 202.956 238.664 204.941C232.406 212.115 234.389 218.374 236.068 222.648C238.312 235.71 246.258 236.568 250.64 236.561C250.691 234.622 250.738 232.777 250.779 231.036L244.524 221.518C244.327 221.217 244.41 220.811 244.711 220.613C245.012 220.416 245.416 220.5 245.614 220.801L250.833 228.742C251.053 218.953 251.13 212.975 251.328 212.764C251.786 212.306 253.159 212.306 253.312 212.764C253.463 213.819 253.355 218.627 253.406 226.446L258.576 218.957C258.781 218.661 259.187 218.586 259.483 218.79C259.779 218.995 259.854 219.401 259.65 219.697L253.426 228.715C253.45 231.093 253.493 233.708 253.559 236.543C256.885 236.558 260.948 236.453 264.767 233.18C268.185 230.249 267.616 224.327 266.903 222.037C267.819 220.969 269.743 218.953 269.499 214.557C269.041 209.978 266.904 207.993 265.225 207.077C266.598 205.856 268.887 201.734 266.903 197.766C264.919 193.797 262.477 193.797 260.492 193.797C261.255 189.37 258.355 184.334 252.402 183.723ZM165.568 192.284V205.108H154.578V192.284H165.568ZM184.801 192.284V205.108H173.811V192.284H184.801ZM165.568 171.829V184.652H154.578V171.829H165.568ZM184.801 171.829V184.652H173.811V171.829H184.801ZM117.008 144.328H121.097V134.292C121.097 133.141 121.002 130.844 120.815 127.401H120.948L126.144 144.328H130.335L135.898 127.43H136.031C135.913 130.145 135.845 131.817 135.825 132.447C135.815 133.077 135.811 133.633 135.811 134.115V144.328H140.075V122.751H133.848L128.431 139.251H128.343L123.236 122.751H117.008V144.328ZM145.521 144.328H149.609V134.175C149.609 132.945 149.516 130.889 149.329 128.006H149.462L158.849 144.328H164.663V122.752H160.546V132.965C160.546 134.126 160.619 136.109 160.767 138.912H160.663L151.292 122.752H145.521V144.328ZM170.108 144.328H182.535V140.55H174.684V134.986H181.989V131.237H174.684V126.5H182.535V122.752H170.108V144.328ZM187.052 144.328H191.14V134.175C191.14 132.945 191.046 130.889 190.859 128.006H190.992L200.379 144.328H206.193V122.752H202.076V132.965C202.076 134.126 202.149 136.109 202.297 138.912H202.193L192.822 122.752H187.052V144.328ZM208.924 144.328H213.853L215.417 139.193H223.283L224.848 144.328H229.777L222.133 122.663H216.539L208.924 144.328ZM219.357 126.013C219.436 126.367 219.564 126.85 219.741 127.46C219.928 128.071 220.745 130.703 222.191 135.356H216.568C218.103 130.387 219.033 127.272 219.357 126.013ZM170.524 54.5724C197.237 54.5725 220.707 75.6298 222.218 101.9H120.805C122.196 75.5169 143.934 54.5727 170.524 54.5724ZM136.949 81.6632C135.23 84.3371 132.137 91.0972 132.748 95.2218H163.303L136.949 81.6632ZM178.595 95.2218H209.149C209.76 91.0969 206.667 84.3368 204.948 81.6632L178.595 95.2218ZM148.979 69.4406C146.191 70.967 140.767 75.9342 139.049 78.9894C144.08 81.7295 157.352 87.9734 165.402 92.3575L148.979 69.4406ZM176.494 92.3575C184.544 87.9736 197.816 81.7298 202.848 78.9894C201.129 75.9338 195.705 70.9664 192.917 69.4406L176.494 92.3575ZM169.031 63.3302C165.857 63.137 155.527 65.1751 152.227 67.7228C155.664 72.6882 163.302 83.7644 169.031 91.5939V63.3302ZM172.864 63.3302V91.5939C178.593 83.7646 186.232 72.6884 189.67 67.7228C186.368 65.1749 176.037 63.1364 172.864 63.3302Z" fill="#004447"/>
</g>
</g>
</g>
</svg>
