<svg width="1169" height="329" viewBox="0 0 1169 329" fill="none" xmlns="http://www.w3.org/2000/svg">
<g id="Final Logo Package">
<g id="MNENA-logo-white-bkg-long">
<rect id="Rectangle 71" width="1169" height="329" fill="white"/>
<g id="MNENA-logo-3Color-knockout">
<path id="Vector 64" d="M94.2836 237.826C96.4241 237.113 110.694 234.259 117.115 233.545C123.537 232.832 149.223 239.967 160.639 242.107C172.055 244.248 195.6 249.956 204.876 248.529C212.296 247.387 217.005 246.15 218.432 245.675" stroke="#004747" stroke-width="5.70797" stroke-linecap="round"/>
<path id="Subtract" d="M166.904 36.0137C167.247 36.2477 167.756 36.5041 168.353 36.8057C170.814 38.0475 174.781 40.0495 174.844 44.3496C190.205 47.9787 208.232 60.2284 214.713 77.7539C238.434 83.601 258.246 90.1206 259.784 90.8008C262.629 92.059 271.015 93.7373 271.165 103.243C271.315 112.749 271.165 211.049 271.165 215.947C271.165 220.84 271.164 232.025 262.778 246.704C251.744 262.891 218.003 277.041 166.189 295.774C160.743 297.743 150.616 297.033 146.872 295.774C119.617 286.615 68.2533 267.255 49.6843 246.704C44.1133 240.538 40.9988 229.089 40.9988 215.947V103.243C40.999 97.7911 44.593 93.5972 49.6843 92.1992C52.5201 91.4205 73.6259 84.0998 97.9548 77.7637C104.957 58.4397 124.939 47.8602 137.174 44.4688C137.159 44.4634 137.143 44.4576 137.128 44.4521C137.128 39.9898 140.859 37.9742 143.165 36.7285C143.662 36.46 144.093 36.2275 144.406 36.0137V43.2471L144.407 33H166.904V36.0137ZM154.924 52.0215C128.066 52.0219 106.198 73.4811 105.392 100.259C102.652 100.274 99.9478 100.292 97.3054 100.312C87.2932 100.389 78.1521 100.505 71.2205 100.678C67.7559 100.764 64.8336 100.866 62.6277 100.984C61.5258 101.044 60.5918 101.108 59.8542 101.178C59.144 101.245 58.5359 101.324 58.1326 101.431C53.001 102.784 49.2315 106.912 49.2312 112.369V213.095C49.2312 224.781 52.1041 235.242 57.531 241.009C66.2268 250.248 82.4561 259.106 99.4636 266.628C116.526 274.174 134.574 280.459 147.075 284.492C148.968 285.103 152.276 285.495 155.678 285.553C159.089 285.61 162.812 285.335 165.53 284.498C187.238 277.81 206.89 270.56 222.398 263.187C237.839 255.845 249.392 248.281 254.652 240.873L254.681 240.831L254.708 240.787C262.555 227.6 262.566 217.502 262.566 213.095C262.566 208.801 262.704 120.723 262.566 112.349C262.49 107.69 260.271 104.875 257.729 103.132C255.333 101.489 252.417 100.704 251.37 100.26C251.138 100.162 250.873 100.11 250.677 100.078C250.451 100.041 250.181 100.01 249.882 99.9824C249.28 99.9268 248.491 99.8809 247.544 99.8428C245.646 99.7663 243.051 99.7183 239.922 99.6924C233.659 99.6405 225.205 99.675 215.784 99.7441C212.714 99.7667 209.541 99.7952 206.306 99.8232C205.193 73.2486 181.636 52.0215 154.924 52.0215ZM215.802 102.284C225.223 102.215 233.659 102.181 239.9 102.232C243.022 102.258 245.584 102.306 247.441 102.381C248.371 102.418 249.11 102.462 249.648 102.512C249.917 102.537 250.122 102.561 250.266 102.585C250.44 102.613 250.446 102.628 250.377 102.599C251.935 103.26 254.164 103.767 256.293 105.227C258.277 106.587 259.966 108.691 260.027 112.391C260.164 120.739 260.026 208.768 260.026 213.095C260.026 217.286 260.037 226.837 252.553 239.438C247.695 246.252 236.705 253.572 221.307 260.893C205.949 268.195 186.423 275.403 164.783 282.07C162.443 282.791 159.033 283.069 155.72 283.014C152.399 282.958 149.389 282.57 147.854 282.075C135.395 278.055 117.44 271.801 100.491 264.306C83.4867 256.785 67.6907 248.097 59.3806 239.268C54.6041 234.192 51.7722 224.517 51.7722 213.095V112.369C51.7725 108.239 54.5866 104.992 58.78 103.887C58.9593 103.839 59.3776 103.774 60.0935 103.706C60.7828 103.641 61.6789 103.579 62.7644 103.521C64.9345 103.404 67.8285 103.304 71.2839 103.218C78.1933 103.045 87.3169 102.929 97.325 102.853C117.34 102.699 140.87 102.699 157.26 102.699C174.204 102.699 196.97 102.422 215.802 102.284ZM104.392 118.94V139.313H108.253V129.838C108.253 128.751 108.165 126.582 107.988 123.33H108.113L113.018 139.313H116.976L122.23 123.357H122.355C122.244 125.922 122.178 127.501 122.16 128.096C122.151 128.69 122.146 129.216 122.146 129.671V139.313H126.174V118.94H120.293L115.178 134.52H115.094L110.273 118.94H104.392ZM131.315 139.313H135.176V129.727C135.176 128.565 135.087 126.623 134.911 123.901H135.037L143.899 139.313H149.39V118.94H145.502V128.583C145.502 129.679 145.571 131.552 145.711 134.199H145.613L136.764 118.94H131.315V139.313ZM154.532 139.313H166.265V135.746H158.852V130.492H165.75V126.953H158.852V122.479H166.265V118.94H154.532V139.313ZM170.53 139.313H174.39V129.727C174.39 128.565 174.302 126.623 174.126 123.901H174.251L183.114 139.313H188.604V118.94H184.717V128.583C184.717 129.679 184.786 131.552 184.926 134.199H184.828L175.979 118.94H170.53V139.313ZM191.182 139.313H195.837L197.314 134.464H204.741L206.219 139.313H210.873L203.654 118.856H198.373L191.182 139.313ZM201.035 122.02C201.109 122.354 201.23 122.81 201.397 123.386C201.574 123.962 202.344 126.447 203.71 130.841H198.401C199.85 126.149 200.728 123.209 201.035 122.02ZM154.924 54.5615C180.146 54.5615 202.308 74.4453 203.735 99.25H107.976C109.29 74.3387 129.816 54.5619 154.924 54.5615ZM123.222 80.1426C121.6 82.6671 118.679 89.0505 119.256 92.9453H148.107L123.222 80.1426ZM162.546 92.9453H191.397C191.974 89.0507 189.053 82.6674 187.43 80.1426L162.546 92.9453ZM134.582 68.6016C131.949 70.0426 126.828 74.7331 125.205 77.6182C129.956 80.2056 142.489 86.1007 150.09 90.2402L134.582 68.6016ZM160.562 90.2402C168.163 86.1006 180.696 80.2056 185.447 77.6182C183.824 74.7332 178.703 70.0427 176.07 68.6016L160.562 90.2402ZM153.516 62.832C150.52 62.6493 140.765 64.5737 137.648 66.9795C140.894 71.6682 148.107 82.1269 153.516 89.5195V62.832ZM157.135 62.832V89.5195C162.545 82.1266 169.758 71.668 173.004 66.9795C169.887 64.5739 160.132 62.6493 157.135 62.832Z" fill="#004447"/>
<path id="Bottom River" d="M120.682 259.894C143.514 259.894 165.033 266.909 176.336 269.17C187.038 271.31 194.84 271.764 207.016 267.029C210.007 265.866 212.65 264.778 214.99 263.769C212.724 264.807 210.307 265.894 207.729 267.029C183.699 275.591 167.288 283.44 155.159 283.44C142.316 282.013 118.582 271.921 111.407 269.17C109.629 268.488 106.643 267.16 103.07 265.493C105.83 264.164 112.358 259.895 120.682 259.894ZM114.262 243.484C139.947 243.484 182.071 256.806 189.179 257.754C199.881 259.181 211.279 258.383 217.719 257.041C234.842 253.474 241.977 248.479 244.831 247.052C243.794 248.607 238.357 252.421 225.521 258.77C227.32 257.814 228.725 257 229.848 256.327C220.334 262.035 201.308 265.018 190.605 264.305C171.288 263.017 144.942 251.333 116.402 252.76C102.979 253.431 94.7202 257.543 90.1659 259.247C80.5881 254.465 71.4911 249.608 70.7382 248.478C74.7817 246.338 99.421 243.484 114.262 243.484Z" fill="#479FB3"/>
<path id="Trees buildings" d="M177.968 232.656H182.217V209.136L198.543 194.263L214.226 209.136V236.665C219.307 236.665 225.179 237.396 230.204 238.312C230.109 240.985 230.002 243.77 229.879 246.648C222.817 249.004 213.515 251.225 204.526 251.079C193.548 250.901 179.529 248.123 167.57 245.351V214.104H157.806V242.999C154.451 242.171 151.468 241.425 149.033 240.846C139.158 238.494 126.214 236.335 115.833 235.619H115.91V215.151H106.109V235.397C97.0177 235.552 87.9895 236.317 83.5958 236.661V220.978C82.6517 222.266 81.3235 223.561 79.5343 224.314C78.7921 224.627 77.7264 224.927 76.5079 225.104C76.4071 221.875 76.3495 218.974 76.3185 216.423L81.3917 209.074C81.5846 208.794 81.5141 208.411 81.2345 208.218C80.9545 208.025 80.5702 208.095 80.3771 208.375L76.297 214.285C76.2497 208.046 76.344 204.31 76.2208 203.446C76.0975 203.078 74.9923 203.078 74.6241 203.446C74.4615 203.612 74.4016 208.274 74.2169 216.116L70.1056 209.859C69.9187 209.576 69.5372 209.496 69.2531 209.683C68.9691 209.869 68.8898 210.252 69.0763 210.536L74.1642 218.279C74.111 220.415 74.0446 222.75 73.9689 225.261C71.9653 225.214 69.8685 224.734 68.2404 223.455C64.8037 220.755 64.0666 219.159 64.0665 215.845C64.0666 212.531 65.0488 210.566 65.4171 209.584C65.7852 208.602 63.6986 208.602 64.5577 203.446C66.7673 198.659 68.2404 199.517 69.4679 198.658C68.609 197.918 68.2422 188.716 75.3605 188.716C78.4293 188.716 81.4982 192.766 80.7618 196.694C82.603 196.694 83.953 197.554 85.0577 200.009C86.1335 202.399 85.1159 207.7 85.0616 208.997L105.077 192.622L124.607 210.197V232.656H130.403V155.517H177.968V232.656ZM233.767 239.02C237.982 239.932 241.101 240.888 241.78 241.444C241.557 241.833 238.62 243.386 234.083 245.138C233.962 243.032 233.858 240.991 233.767 239.02ZM139.866 228.859H150.243V214.445H139.866V228.859ZM187.589 228.413H195.66V214.864H187.589V228.413ZM200.272 228.413H208.344V214.864H200.272V228.413ZM91.4073 228.412H100.632V215.151H91.4073V228.412ZM232.235 176.511C237.857 177.087 240.596 181.844 239.875 186.023C241.749 186.023 244.055 186.024 245.929 189.771C247.802 193.519 245.64 197.41 244.343 198.563C245.928 199.428 247.947 201.302 248.379 205.626C248.61 209.777 246.794 211.681 245.929 212.689C246.601 214.852 247.139 220.444 243.91 223.211C240.304 226.301 236.468 226.401 233.327 226.387C233.265 223.71 233.226 221.241 233.203 218.996L239.081 210.479C239.274 210.2 239.204 209.816 238.924 209.623C238.644 209.43 238.261 209.501 238.068 209.78L233.185 216.853C233.136 209.467 233.239 204.928 233.097 203.933C232.952 203.5 231.655 203.501 231.223 203.933C231.035 204.125 230.963 209.771 230.755 219.019L225.828 211.521C225.642 211.238 225.26 211.159 224.976 211.345C224.692 211.532 224.612 211.914 224.799 212.198L230.705 221.187C230.666 222.83 230.621 224.573 230.572 226.403C226.436 226.41 218.931 225.601 216.813 213.266C215.227 209.23 213.354 203.32 219.264 196.546C217.678 194.672 216.525 192.509 217.966 188.906C219.119 186.024 222.001 185.592 223.587 185.592C223.299 184.006 222.867 176.511 232.235 176.511ZM139.866 196.702H150.243V184.595H139.866V196.702ZM158.026 196.702H168.404V184.595H158.026V196.702ZM139.866 177.388H150.243V165.28H139.866V177.388ZM158.026 177.388H168.404V165.28H158.026V177.388Z" fill="#5DA145"/>
</g>
<g id="Group 25">
<path id="NEIGHBORHOOD ASSOCIATION" d="M345.329 216.811H340.225L319.207 184.534H318.997C319.277 188.322 319.417 191.795 319.417 194.951V216.811H315.287V178.352H320.338L341.304 210.498H341.514C341.479 210.024 341.4 208.507 341.278 205.947C341.155 203.369 341.111 201.528 341.146 200.423V178.352H345.329V216.811ZM377.343 216.811H355.904V178.352H377.343V182.324H360.376V194.714H376.317V198.66H360.376V212.813H377.343V216.811ZM385.892 216.811V178.352H390.364V216.811H385.892ZM417.854 196.661H430.928V215.364C428.893 216.013 426.824 216.504 424.719 216.838C422.615 217.171 420.177 217.337 417.406 217.337C411.584 217.337 407.051 215.61 403.806 212.155C400.562 208.683 398.94 203.825 398.94 197.582C398.94 193.583 399.738 190.085 401.334 187.086C402.947 184.069 405.262 181.772 408.278 180.194C411.295 178.598 414.828 177.8 418.879 177.8C422.983 177.8 426.806 178.554 430.349 180.062L428.613 184.008C425.14 182.535 421.799 181.798 418.59 181.798C413.908 181.798 410.251 183.193 407.621 185.981C404.99 188.769 403.675 192.636 403.675 197.582C403.675 202.773 404.937 206.71 407.463 209.393C410.006 212.076 413.732 213.418 418.643 213.418C421.308 213.418 423.913 213.111 426.456 212.497V200.66H417.854V196.661ZM469.387 216.811H464.915V198.713H444.659V216.811H440.187V178.352H444.659V194.714H464.915V178.352H469.387V216.811ZM479.961 178.352H490.826C495.929 178.352 499.621 179.115 501.9 180.641C504.18 182.167 505.32 184.578 505.32 187.875C505.32 190.155 504.68 192.04 503.4 193.531C502.137 195.004 500.287 195.96 497.849 196.398V196.661C503.689 197.661 506.609 200.73 506.609 205.868C506.609 209.305 505.443 211.989 503.11 213.918C500.796 215.847 497.551 216.811 493.377 216.811H479.961V178.352ZM484.433 194.82H491.799C494.956 194.82 497.227 194.329 498.612 193.347C499.998 192.347 500.69 190.672 500.69 188.322C500.69 186.165 499.919 184.613 498.375 183.666C496.832 182.701 494.377 182.219 491.01 182.219H484.433V194.82ZM484.433 198.608V212.997H492.457C495.561 212.997 497.893 212.401 499.454 211.208C501.032 209.998 501.821 208.113 501.821 205.552C501.821 203.167 501.015 201.414 499.401 200.291C497.805 199.169 495.368 198.608 492.088 198.608H484.433ZM548.277 197.529C548.277 203.685 546.717 208.525 543.595 212.05C540.491 215.575 536.168 217.337 530.626 217.337C524.962 217.337 520.586 215.61 517.5 212.155C514.431 208.683 512.896 203.79 512.896 197.477C512.896 191.216 514.439 186.367 517.526 182.929C520.613 179.475 524.997 177.747 530.679 177.747C536.203 177.747 540.517 179.501 543.621 183.008C546.725 186.516 548.277 191.356 548.277 197.529ZM517.631 197.529C517.631 202.738 518.736 206.692 520.946 209.393C523.173 212.076 526.4 213.418 530.626 213.418C534.888 213.418 538.106 212.076 540.281 209.393C542.455 206.71 543.542 202.755 543.542 197.529C543.542 192.356 542.455 188.436 540.281 185.77C538.123 183.087 534.923 181.746 530.679 181.746C526.417 181.746 523.173 183.096 520.946 185.797C518.736 188.48 517.631 192.391 517.631 197.529ZM561.351 200.817V216.811H556.879V178.352H567.428C572.146 178.352 575.627 179.255 577.871 181.062C580.134 182.868 581.265 185.586 581.265 189.217C581.265 194.302 578.687 197.74 573.531 199.528L583.974 216.811H578.687L569.375 200.817H561.351ZM561.351 196.977H567.481C570.637 196.977 572.952 196.354 574.425 195.109C575.898 193.846 576.635 191.961 576.635 189.453C576.635 186.91 575.881 185.078 574.373 183.955C572.882 182.833 570.48 182.272 567.165 182.272H561.351V196.977ZM619.382 216.811H614.91V198.713H594.654V216.811H590.183V178.352H594.654V194.714H614.91V178.352H619.382V216.811ZM663.339 197.529C663.339 203.685 661.778 208.525 658.656 212.05C655.552 215.575 651.229 217.337 645.688 217.337C640.023 217.337 635.648 215.61 632.561 212.155C629.492 208.683 627.958 203.79 627.958 197.477C627.958 191.216 629.501 186.367 632.587 182.929C635.674 179.475 640.058 177.747 645.74 177.747C651.264 177.747 655.579 179.501 658.683 183.008C661.787 186.516 663.339 191.356 663.339 197.529ZM632.693 197.529C632.693 202.738 633.797 206.692 636.007 209.393C638.234 212.076 641.461 213.418 645.688 213.418C649.949 213.418 653.167 212.076 655.342 209.393C657.516 206.71 658.604 202.755 658.604 197.529C658.604 192.356 657.516 188.436 655.342 185.77C653.185 183.087 649.984 181.746 645.74 181.746C641.479 181.746 638.234 183.096 636.007 185.797C633.797 188.48 632.693 192.391 632.693 197.529ZM705.323 197.529C705.323 203.685 703.762 208.525 700.64 212.05C697.536 215.575 693.213 217.337 687.672 217.337C682.007 217.337 677.632 215.61 674.545 212.155C671.476 208.683 669.942 203.79 669.942 197.477C669.942 191.216 671.485 186.367 674.571 182.929C677.658 179.475 682.042 177.747 687.724 177.747C693.248 177.747 697.563 179.501 700.667 183.008C703.771 186.516 705.323 191.356 705.323 197.529ZM674.677 197.529C674.677 202.738 675.781 206.692 677.991 209.393C680.218 212.076 683.445 213.418 687.672 213.418C691.933 213.418 695.151 212.076 697.326 209.393C699.5 206.71 700.588 202.755 700.588 197.529C700.588 192.356 699.5 188.436 697.326 185.77C695.169 183.087 691.968 181.746 687.724 181.746C683.463 181.746 680.218 183.096 677.991 185.797C675.781 188.48 674.677 192.391 674.677 197.529ZM744.624 197.213C744.624 203.562 742.896 208.42 739.441 211.787C736.004 215.136 731.05 216.811 724.579 216.811H713.925V178.352H725.71C731.69 178.352 736.337 180.01 739.652 183.324C742.966 186.639 744.624 191.268 744.624 197.213ZM739.888 197.371C739.888 192.356 738.626 188.576 736.1 186.034C733.593 183.491 729.857 182.219 724.894 182.219H718.397V212.944H723.842C729.173 212.944 733.181 211.638 735.864 209.025C738.547 206.394 739.888 202.51 739.888 197.371ZM791.395 216.811L786.607 204.579H771.192L766.457 216.811H761.933L777.137 178.194H780.899L796.025 216.811H791.395ZM785.213 200.554L780.741 188.638C780.163 187.13 779.566 185.279 778.953 183.087C778.567 184.771 778.014 186.621 777.295 188.638L772.771 200.554H785.213ZM823.015 206.578C823.015 209.963 821.787 212.602 819.332 214.496C816.877 216.39 813.545 217.337 809.336 217.337C804.776 217.337 801.269 216.75 798.813 215.575V211.261C800.392 211.927 802.11 212.453 803.969 212.839C805.828 213.225 807.67 213.418 809.494 213.418C812.475 213.418 814.72 212.857 816.228 211.734C817.736 210.594 818.49 209.016 818.49 206.999C818.49 205.666 818.218 204.579 817.675 203.737C817.148 202.878 816.254 202.089 814.991 201.37C813.746 200.651 811.843 199.835 809.283 198.923C805.705 197.643 803.145 196.126 801.602 194.372C800.076 192.619 799.313 190.33 799.313 187.507C799.313 184.543 800.427 182.184 802.654 180.43C804.881 178.677 807.827 177.8 811.493 177.8C815.316 177.8 818.832 178.501 822.041 179.904L820.647 183.798C817.473 182.465 814.386 181.798 811.388 181.798C809.02 181.798 807.17 182.307 805.837 183.324C804.504 184.341 803.838 185.753 803.838 187.559C803.838 188.892 804.083 189.988 804.574 190.848C805.065 191.689 805.89 192.47 807.047 193.189C808.222 193.89 810.011 194.671 812.413 195.53C816.447 196.968 819.218 198.511 820.726 200.16C822.252 201.808 823.015 203.948 823.015 206.578ZM852.582 206.578C852.582 209.963 851.355 212.602 848.9 214.496C846.444 216.39 843.112 217.337 838.903 217.337C834.344 217.337 830.836 216.75 828.381 215.575V211.261C829.959 211.927 831.678 212.453 833.537 212.839C835.396 213.225 837.237 213.418 839.061 213.418C842.043 213.418 844.287 212.857 845.795 211.734C847.304 210.594 848.058 209.016 848.058 206.999C848.058 205.666 847.786 204.579 847.242 203.737C846.716 202.878 845.822 202.089 844.559 201.37C843.314 200.651 841.411 199.835 838.851 198.923C835.273 197.643 832.713 196.126 831.169 194.372C829.644 192.619 828.881 190.33 828.881 187.507C828.881 184.543 829.994 182.184 832.222 180.43C834.449 178.677 837.395 177.8 841.06 177.8C844.884 177.8 848.4 178.501 851.609 179.904L850.215 183.798C847.041 182.465 843.954 181.798 840.955 181.798C838.588 181.798 836.738 182.307 835.405 183.324C834.072 184.341 833.405 185.753 833.405 187.559C833.405 188.892 833.651 189.988 834.142 190.848C834.633 191.689 835.457 192.47 836.615 193.189C837.79 193.89 839.579 194.671 841.981 195.53C846.015 196.968 848.786 198.511 850.294 200.16C851.819 201.808 852.582 203.948 852.582 206.578ZM893.83 197.529C893.83 203.685 892.269 208.525 889.147 212.05C886.043 215.575 881.72 217.337 876.179 217.337C870.514 217.337 866.139 215.61 863.052 212.155C859.983 208.683 858.448 203.79 858.448 197.477C858.448 191.216 859.992 186.367 863.078 182.929C866.165 179.475 870.549 177.747 876.231 177.747C881.755 177.747 886.07 179.501 889.174 183.008C892.278 186.516 893.83 191.356 893.83 197.529ZM863.184 197.529C863.184 202.738 864.288 206.692 866.498 209.393C868.725 212.076 871.952 213.418 876.179 213.418C880.44 213.418 883.658 212.076 885.833 209.393C888.007 206.71 889.095 202.755 889.095 197.529C889.095 192.356 888.007 188.436 885.833 185.77C883.676 183.087 880.475 181.746 876.231 181.746C871.97 181.746 868.725 183.096 866.498 185.797C864.288 188.48 863.184 192.391 863.184 197.529ZM918.899 181.798C914.673 181.798 911.332 183.21 908.877 186.034C906.439 188.84 905.22 192.689 905.22 197.582C905.22 202.615 906.395 206.508 908.745 209.262C911.113 211.997 914.48 213.365 918.846 213.365C921.53 213.365 924.59 212.883 928.027 211.918V215.838C925.362 216.838 922.073 217.337 918.163 217.337C912.498 217.337 908.122 215.619 905.036 212.181C901.967 208.744 900.432 203.86 900.432 197.529C900.432 193.566 901.169 190.093 902.642 187.112C904.133 184.131 906.272 181.833 909.061 180.22C911.867 178.607 915.164 177.8 918.952 177.8C922.985 177.8 926.51 178.536 929.527 180.01L927.633 183.85C924.721 182.482 921.81 181.798 918.899 181.798ZM936.419 216.811V178.352H940.891V216.811H936.419ZM975.641 216.811L970.853 204.579H955.438L950.703 216.811H946.178L961.383 178.194H965.145L980.27 216.811H975.641ZM969.459 200.554L964.987 188.638C964.408 187.13 963.812 185.279 963.198 183.087C962.812 184.771 962.26 186.621 961.541 188.638L957.016 200.554H969.459ZM997.395 216.811H992.923V182.324H980.744V178.352H1009.57V182.324H997.395V216.811ZM1015.39 216.811V178.352H1019.86V216.811H1015.39ZM1063.82 197.529C1063.82 203.685 1062.26 208.525 1059.14 212.05C1056.03 215.575 1051.71 217.337 1046.17 217.337C1040.5 217.337 1036.13 215.61 1033.04 212.155C1029.97 208.683 1028.44 203.79 1028.44 197.477C1028.44 191.216 1029.98 186.367 1033.07 182.929C1036.15 179.475 1040.54 177.747 1046.22 177.747C1051.74 177.747 1056.06 179.501 1059.16 183.008C1062.27 186.516 1063.82 191.356 1063.82 197.529ZM1033.17 197.529C1033.17 202.738 1034.28 206.692 1036.49 209.393C1038.71 212.076 1041.94 213.418 1046.17 213.418C1050.43 213.418 1053.65 212.076 1055.82 209.393C1058 206.71 1059.08 202.755 1059.08 197.529C1059.08 192.356 1058 188.436 1055.82 185.77C1053.66 183.087 1050.46 181.746 1046.22 181.746C1041.96 181.746 1038.71 183.096 1036.49 185.797C1034.28 188.48 1033.17 192.391 1033.17 197.529ZM1102.46 216.811H1097.36L1076.34 184.534H1076.13C1076.41 188.322 1076.55 191.795 1076.55 194.951V216.811H1072.42V178.352H1077.47L1098.44 210.498H1098.65C1098.61 210.024 1098.53 208.507 1098.41 205.947C1098.29 203.369 1098.24 201.528 1098.28 200.423V178.352H1102.46V216.811Z" fill="#479FB3"/>
<path id="Marshall - New Era" d="M314.34 148V143.959L321.598 143.062V103.629L315.013 102.88V98.8398H334.767L346.964 131.763L358.412 98.8398H377.343V102.88L372.03 103.479C371.98 106.522 371.93 109.615 371.88 112.757C371.88 115.85 371.88 118.943 371.88 122.036V124.804C371.88 127.897 371.88 130.99 371.88 134.083C371.93 137.175 371.98 140.268 372.03 143.361L377.567 143.959V148H353.698V143.959L359.16 143.286C359.26 140.243 359.285 137.275 359.235 134.382C359.235 131.489 359.26 128.82 359.31 126.376L359.459 109.839L346.14 148H340.379L326.087 109.764L326.461 124.729V142.987L332.597 143.959V148H314.34ZM401.772 110.288L395.561 129.369H407.833L401.772 110.288ZM380.746 148V143.959L386.807 143.062L401.996 98.765H409.703L425.043 143.585L429.607 144.109V148H406.486V144.109L412.247 143.361L409.18 133.708H394.14L391.147 143.062L396.833 143.959V148H380.746ZM454.065 103.18H451.072C451.022 106.272 450.973 109.365 450.923 112.458C450.923 115.501 450.923 118.419 450.923 121.213H453.766C456.26 121.213 458.206 120.789 459.602 119.941C460.999 119.093 461.997 117.97 462.595 116.573C463.194 115.177 463.493 113.68 463.493 112.084C463.493 106.148 460.351 103.18 454.065 103.18ZM432.815 102.88V98.8398H457.133C463.019 98.8398 467.534 99.9373 470.677 102.132C473.869 104.327 475.465 107.37 475.465 111.261C475.465 112.907 475.041 114.553 474.193 116.199C473.345 117.796 471.949 119.217 470.003 120.464C468.058 121.662 465.414 122.534 462.072 123.083C464.915 123.432 467.135 124.131 468.731 125.178C470.327 126.176 471.525 127.498 472.323 129.144C473.121 130.74 473.695 132.711 474.044 135.055L475.465 143.361L481.152 143.959V148C479.955 148.249 478.957 148.449 478.159 148.599C477.361 148.798 476.563 148.923 475.765 148.973C475.016 149.023 474.069 149.048 472.921 149.048C469.729 149.048 467.21 148.499 465.364 147.401C463.568 146.304 462.471 144.309 462.072 141.415L460.725 132.736C460.376 130.241 459.652 128.396 458.555 127.199C457.507 126.001 455.861 125.403 453.616 125.403H450.923C450.923 128.595 450.923 131.663 450.923 134.606C450.973 137.549 451.022 140.468 451.072 143.361L456.909 143.959V148H432.815V143.959L438.427 143.361C438.527 140.318 438.577 137.25 438.577 134.157C438.577 131.065 438.577 127.947 438.577 124.804V122.036C438.577 118.943 438.577 115.85 438.577 112.757C438.577 109.615 438.527 106.522 438.427 103.479L432.815 102.88ZM499.912 149.422C497.118 149.422 494.25 149.097 491.307 148.449C488.364 147.8 485.82 146.803 483.675 145.456L484.123 134.382H491.082L492.579 143.585C493.726 144.034 494.873 144.383 496.021 144.633C497.168 144.832 498.44 144.932 499.837 144.932C502.53 144.932 504.576 144.259 505.972 142.912C507.369 141.515 508.068 139.819 508.068 137.824C508.068 135.828 507.544 134.282 506.496 133.185C505.499 132.087 503.877 131.04 501.633 130.042L498.415 128.62C494.025 126.575 490.608 124.305 488.164 121.811C485.77 119.317 484.572 116 484.572 111.859C484.572 107.37 486.244 103.853 489.586 101.309C492.978 98.7151 497.492 97.4181 503.129 97.4181C505.823 97.4181 508.392 97.7673 510.836 98.4657C513.33 99.1142 515.475 100.037 517.271 101.234L516.672 111.71H509.789L508.367 102.88C507.569 102.581 506.771 102.357 505.972 102.207C505.174 102.007 504.301 101.908 503.354 101.908C501.209 101.908 499.388 102.531 497.891 103.778C496.395 105.025 495.647 106.672 495.647 108.717C495.647 110.712 496.22 112.308 497.368 113.506C498.565 114.653 500.261 115.725 502.456 116.723L505.972 118.294C510.711 120.439 514.128 122.709 516.224 125.103C518.369 127.448 519.441 130.516 519.441 134.307C519.441 138.697 517.77 142.313 514.428 145.157C511.135 148 506.297 149.422 499.912 149.422ZM552.595 102.88V98.8398H576.24V102.88L570.703 103.479C570.653 106.522 570.603 109.59 570.553 112.682C570.553 115.775 570.553 118.893 570.553 122.036V124.804C570.553 127.847 570.553 130.94 570.553 134.083C570.603 137.175 570.653 140.268 570.703 143.361L576.24 143.959V148H552.595V143.959L557.833 143.436C557.933 140.343 557.982 137.25 557.982 134.157C557.982 131.065 557.982 127.997 557.982 124.954H542.045C542.045 128.296 542.045 131.489 542.045 134.531C542.095 137.524 542.144 140.493 542.194 143.436L547.432 143.959V148H523.862V143.959L529.324 143.361C529.424 140.318 529.474 137.25 529.474 134.157C529.474 131.065 529.474 127.947 529.474 124.804V122.036C529.474 118.943 529.474 115.85 529.474 112.757C529.474 109.665 529.424 106.572 529.324 103.479L523.862 102.88V98.8398H547.432V102.88L542.194 103.404C542.144 106.447 542.095 109.465 542.045 112.458C542.045 115.451 542.045 118.145 542.045 120.539H557.982C557.982 117.696 557.982 114.852 557.982 112.009C557.982 109.116 557.933 106.248 557.833 103.404L552.595 102.88ZM600.307 110.288L594.097 129.369H606.368L600.307 110.288ZM579.281 148V143.959L585.342 143.062L600.532 98.765H608.239L623.578 143.585L628.142 144.109V148H605.021V144.109L610.783 143.361L607.715 133.708H592.675L589.682 143.062L595.369 143.959V148H579.281ZM631.35 102.88V98.8398H656.043V102.88L649.832 103.479C649.782 106.522 649.732 109.615 649.683 112.757C649.683 115.85 649.683 118.943 649.683 122.036V126.001C649.683 128.695 649.683 131.563 649.683 134.606C649.732 137.599 649.782 140.642 649.832 143.735H662.777L664.797 133.334H670.858L670.11 148H631.35V143.959L636.962 143.361C637.062 140.318 637.112 137.35 637.112 134.457C637.112 131.514 637.112 128.82 637.112 126.376V122.036C637.112 118.943 637.112 115.85 637.112 112.757C637.112 109.615 637.062 106.522 636.962 103.479L631.35 102.88ZM674.316 102.88V98.8398H699.009V102.88L692.798 103.479C692.748 106.522 692.698 109.615 692.649 112.757C692.649 115.85 692.649 118.943 692.649 122.036V126.001C692.649 128.695 692.649 131.563 692.649 134.606C692.698 137.599 692.748 140.642 692.798 143.735H705.743L707.763 133.334H713.824L713.076 148H674.316V143.959L679.928 143.361C680.028 140.318 680.078 137.35 680.078 134.457C680.078 131.514 680.078 128.82 680.078 126.376V122.036C680.078 118.943 680.078 115.85 680.078 112.757C680.078 109.615 680.028 106.522 679.928 103.479L674.316 102.88ZM734.247 132.362V125.627H753.627V132.362H734.247ZM805.237 102.88V98.8398H824.916V102.88L818.555 103.853V148.15H812.27L785.932 111.635V142.987L794.462 143.959V148H774.708V143.959L781.068 143.062V104.826L780.02 103.404L774.858 102.88V98.8398H791.768L813.767 129.069V103.853L805.237 102.88ZM828.79 102.88V98.8398H866.95L867.474 111.71H861.264L859.767 103.03H847.271C847.221 105.873 847.172 108.742 847.122 111.635C847.122 114.528 847.122 117.446 847.122 120.389H855.203L856.101 114.553H860.441V130.641H856.101L855.203 124.804H847.122C847.122 128.246 847.122 131.514 847.122 134.606C847.172 137.699 847.221 140.767 847.271 143.81H861.264L862.76 135.13H868.971L868.447 148H828.79V143.959L834.401 143.361C834.501 140.318 834.551 137.25 834.551 134.157C834.551 131.065 834.551 127.947 834.551 124.804V122.036C834.551 118.943 834.551 115.85 834.551 112.757C834.551 109.615 834.501 106.522 834.401 103.479L828.79 102.88ZM927.627 102.88V98.8398H943.415V102.88L937.579 103.853L924.41 148.15H917.077L906.452 114.179L896.126 148.15H888.793L875.399 103.329L870.835 102.88V98.8398H894.031V102.88L888.569 103.479L896.201 133.559L905.18 103.554L899.717 102.88V98.8398H922.165V102.88L915.58 103.703L924.335 134.157L932.94 103.703L927.627 102.88ZM960.172 102.88V98.8398H998.333L998.857 111.71H992.646L991.15 103.03H978.654C978.604 105.873 978.554 108.742 978.504 111.635C978.504 114.528 978.504 117.446 978.504 120.389H986.585L987.483 114.553H991.823V130.641H987.483L986.585 124.804H978.504C978.504 128.246 978.504 131.514 978.504 134.606C978.554 137.699 978.604 140.767 978.654 143.81H992.646L994.143 135.13H1000.35L999.83 148H960.172V143.959L965.784 143.361C965.884 140.318 965.934 137.25 965.934 134.157C965.934 131.065 965.934 127.947 965.934 124.804V122.036C965.934 118.943 965.934 115.85 965.934 112.757C965.934 109.615 965.884 106.522 965.784 103.479L960.172 102.88ZM1025.92 103.18H1022.93C1022.88 106.272 1022.83 109.365 1022.78 112.458C1022.78 115.501 1022.78 118.419 1022.78 121.213H1025.62C1028.12 121.213 1030.06 120.789 1031.46 119.941C1032.86 119.093 1033.85 117.97 1034.45 116.573C1035.05 115.177 1035.35 113.68 1035.35 112.084C1035.35 106.148 1032.21 103.18 1025.92 103.18ZM1004.67 102.88V98.8398H1028.99C1034.88 98.8398 1039.39 99.9373 1042.53 102.132C1045.73 104.327 1047.32 107.37 1047.32 111.261C1047.32 112.907 1046.9 114.553 1046.05 116.199C1045.2 117.796 1043.81 119.217 1041.86 120.464C1039.92 121.662 1037.27 122.534 1033.93 123.083C1036.77 123.432 1038.99 124.131 1040.59 125.178C1042.19 126.176 1043.38 127.498 1044.18 129.144C1044.98 130.74 1045.55 132.711 1045.9 135.055L1047.32 143.361L1053.01 143.959V148C1051.81 148.249 1050.81 148.449 1050.02 148.599C1049.22 148.798 1048.42 148.923 1047.62 148.973C1046.87 149.023 1045.93 149.048 1044.78 149.048C1041.59 149.048 1039.07 148.499 1037.22 147.401C1035.43 146.304 1034.33 144.309 1033.93 141.415L1032.58 132.736C1032.23 130.241 1031.51 128.396 1030.41 127.199C1029.37 126.001 1027.72 125.403 1025.47 125.403H1022.78C1022.78 128.595 1022.78 131.663 1022.78 134.606C1022.83 137.549 1022.88 140.468 1022.93 143.361L1028.77 143.959V148H1004.67V143.959L1010.28 143.361C1010.38 140.318 1010.43 137.25 1010.43 134.157C1010.43 131.065 1010.43 127.947 1010.43 124.804V122.036C1010.43 118.943 1010.43 115.85 1010.43 112.757C1010.43 109.615 1010.38 106.522 1010.28 103.479L1004.67 102.88ZM1075.71 110.288L1069.5 129.369H1081.77L1075.71 110.288ZM1054.68 148V143.959L1060.75 143.062L1075.93 98.765H1083.64L1098.98 143.585L1103.55 144.109V148H1080.42V144.109L1086.19 143.361L1083.12 133.708H1068.08L1065.09 143.062L1070.77 143.959V148H1054.68Z" fill="#004447"/>
</g>
</g>
</g>
</svg>
