<svg width="345" height="345" viewBox="0 0 345 345" fill="none" xmlns="http://www.w3.org/2000/svg">
<g id="Final Logo Package">
<g id="MNENA-logo-3Color-white-bkg">
<circle id="Ellipse 9" cx="172.284" cy="172.284" r="172.284" fill="white"/>
<g id="MNENA-logo-3Color-knockout">
<path id="Vector 64" d="M107.265 249.752C109.532 248.997 124.644 245.974 131.445 245.219C138.246 244.463 165.448 252.019 177.539 254.286C189.629 256.553 214.564 262.598 224.388 261.087C232.246 259.878 237.233 258.568 238.745 258.064" stroke="#004747" stroke-width="6.04504" stroke-linecap="round"/>
<path id="Subtract" d="M184.173 36.022C184.536 36.2699 185.075 36.5423 185.708 36.8618C188.315 38.177 192.515 40.296 192.582 44.8501C208.851 48.6936 227.947 61.6668 234.81 80.229C259.929 86.4208 280.907 93.3246 282.538 94.0454C285.551 95.3779 294.433 97.1543 294.591 107.222C294.75 117.29 294.591 221.395 294.591 226.582C294.591 231.764 294.591 243.609 285.709 259.155C274.024 276.298 238.29 291.283 183.417 311.123C177.65 313.208 166.923 312.455 162.958 311.123C134.094 301.422 79.6973 280.919 60.0317 259.155C54.1318 252.625 50.8335 240.499 50.8335 226.582V107.222C50.8335 101.448 54.6396 97.0065 60.0317 95.5259C63.0344 94.7014 85.3867 86.9472 111.153 80.2368C118.569 59.7723 139.73 48.5688 152.687 44.9771C152.671 44.9714 152.655 44.9653 152.639 44.9595C152.639 40.2334 156.591 38.0991 159.033 36.7798C159.559 36.4953 160.016 36.2485 160.347 36.022V43.6831L160.348 32.8306H184.173V36.022ZM171.487 52.9761C143.042 52.9762 119.883 75.7033 119.03 104.063C116.128 104.079 113.264 104.098 110.465 104.12C99.8617 104.201 90.1814 104.323 82.8403 104.506C79.1712 104.598 76.077 104.705 73.7407 104.831C72.5735 104.893 71.5845 104.961 70.8032 105.035C70.0506 105.106 69.4064 105.19 68.979 105.302C63.5443 106.735 59.5534 111.108 59.5532 116.887V223.561C59.5533 235.938 62.5946 247.016 68.3423 253.124C77.5518 262.909 94.7393 272.29 112.751 280.256C130.822 288.248 149.934 294.903 163.173 299.175C165.179 299.822 168.682 300.238 172.286 300.298C175.898 300.359 179.84 300.068 182.719 299.181C205.709 292.098 226.521 284.421 242.945 276.612C259.297 268.837 271.533 260.826 277.104 252.98L277.135 252.936L277.163 252.889C285.473 238.923 285.486 228.229 285.486 223.561C285.486 219.018 285.631 125.735 285.486 116.866C285.405 111.932 283.055 108.951 280.363 107.105C277.825 105.364 274.737 104.534 273.627 104.063C273.382 103.959 273.103 103.905 272.894 103.871C272.655 103.831 272.37 103.798 272.052 103.769C271.415 103.71 270.579 103.662 269.576 103.622C267.565 103.541 264.818 103.49 261.503 103.462C254.871 103.407 245.918 103.444 235.94 103.517C232.689 103.541 229.329 103.57 225.904 103.6C224.733 75.6818 200.174 53.3362 172.166 52.98L171.487 52.9761ZM235.96 106.208C245.938 106.134 254.872 106.097 261.481 106.152C264.787 106.179 267.5 106.23 269.467 106.309C270.452 106.349 271.235 106.395 271.804 106.448C272.09 106.474 272.306 106.501 272.459 106.526C272.552 106.541 272.599 106.552 272.615 106.555L272.894 106.669C274.521 107.311 276.727 107.874 278.841 109.324C280.942 110.765 282.732 112.991 282.796 116.91C282.941 125.749 282.795 218.983 282.795 223.561C282.795 228.001 282.807 238.116 274.879 251.463C269.733 258.679 258.095 266.43 241.791 274.182C225.525 281.916 204.846 289.548 181.927 296.61C179.449 297.373 175.839 297.668 172.331 297.609C168.813 297.55 165.625 297.14 164 296.616C150.804 292.358 131.79 285.735 113.839 277.796C95.8307 269.832 79.1023 260.631 70.3013 251.28C65.2423 245.904 62.2427 235.658 62.2427 223.561V116.887C62.2429 112.513 65.2242 109.075 69.6655 107.904C69.8556 107.854 70.2983 107.785 71.0562 107.713C71.7862 107.644 72.7346 107.579 73.8843 107.517C76.1827 107.394 79.2479 107.286 82.9077 107.195C90.2251 107.012 99.8868 106.89 110.486 106.809C131.683 106.646 156.603 106.647 173.961 106.647C191.905 106.647 216.016 106.354 235.96 106.208ZM117.97 123.846V145.422H122.058V135.387C122.058 134.236 121.965 131.938 121.778 128.495H121.911L127.106 145.422H131.297L136.861 128.524H136.994C136.876 131.239 136.807 132.911 136.788 133.542C136.778 134.171 136.773 134.727 136.773 135.209V145.422H141.038V123.846H134.81L129.393 140.345H129.305L124.199 123.846H117.97ZM146.484 145.422H150.572V135.269C150.572 134.039 150.478 131.983 150.292 129.1H150.424L159.81 145.422H165.625V123.846H161.507V134.058C161.507 135.219 161.581 137.202 161.729 140.006H161.625L152.254 123.846H146.484V145.422ZM171.071 145.422H183.498V141.644H175.646V136.081H182.952V132.332H175.646V127.594H183.498V123.846H171.071V145.422ZM188.014 145.422H192.102V135.269C192.102 134.039 192.009 131.983 191.822 129.1H191.955L201.341 145.422H207.156V123.846H203.039V134.058C203.039 135.219 203.112 137.202 203.259 140.006H203.156L193.785 123.846H188.014V145.422ZM209.885 145.422H214.815L216.379 140.287H224.246L225.81 145.422H230.739L223.094 123.757H217.5L209.885 145.422ZM220.32 127.107C220.399 127.461 220.527 127.943 220.704 128.553C220.891 129.163 221.707 131.796 223.153 136.45H217.531C219.066 131.481 219.995 128.366 220.32 127.107ZM171.487 55.6665C198.199 55.6668 221.669 76.724 223.18 102.994H121.767C123.159 76.6109 144.897 55.6666 171.487 55.6665ZM137.913 82.7573C136.194 85.431 133.1 92.1911 133.71 96.3159H164.266L137.913 82.7573ZM179.558 96.3159H210.113C210.724 92.1912 207.63 85.4312 205.912 82.7573L179.558 96.3159ZM149.943 70.5347C147.155 72.0609 141.731 77.0282 140.012 80.0835C145.044 82.8237 158.316 89.0676 166.366 93.4517L149.943 70.5347ZM177.458 93.4517C185.507 89.0677 198.779 82.8238 203.811 80.0835C202.092 77.0282 196.67 72.0609 193.881 70.5347L177.458 93.4517ZM169.996 64.4243C166.823 64.2308 156.491 66.269 153.19 68.8169C156.628 73.7824 164.267 84.8586 169.996 92.688V64.4243ZM173.828 64.4243V92.688C179.557 84.8585 187.196 73.7823 190.633 68.8169C187.332 66.269 177 64.2307 173.828 64.4243Z" fill="#004447"/>
<path id="Bottom River" d="M135.223 273.124C159.403 273.124 182.191 280.554 194.162 282.948C205.496 285.215 213.76 285.695 226.654 280.68C229.819 279.449 232.615 278.297 235.092 277.23C232.694 278.327 230.137 279.479 227.41 280.68C201.961 289.748 184.581 298.06 171.735 298.06C158.134 296.549 133 285.862 125.4 282.948C123.517 282.225 120.352 280.82 116.567 279.054C119.488 277.648 126.404 273.124 135.223 273.124ZM128.423 255.745C155.625 255.745 200.236 269.853 207.763 270.857C219.098 272.368 231.169 271.523 237.989 270.102C256.124 266.324 263.68 261.034 266.703 259.523C265.605 261.17 259.845 265.211 246.246 271.937C248.154 270.923 249.645 270.06 250.835 269.346C240.76 275.391 220.61 278.55 209.275 277.794C188.817 276.431 160.914 264.057 130.689 265.568C116.473 266.279 107.727 270.634 102.904 272.439C92.7605 267.375 83.1263 262.23 82.3289 261.034C86.6112 258.767 112.706 255.745 128.423 255.745Z" fill="#479FB3"/>
<path id="Trees buildings" d="M195.891 244.276H200.391V219.367L217.681 203.616L234.29 219.367V248.523C239.671 248.523 245.889 249.297 251.211 250.267C251.111 253.099 250.997 256.048 250.867 259.096C243.387 261.59 233.536 263.943 224.017 263.788C212.39 263.599 197.544 260.657 184.879 257.721V224.629H174.539V255.231C170.985 254.353 167.826 253.563 165.248 252.949C154.792 250.46 141.088 248.174 130.095 247.415H130.168V225.739H119.789V247.18C110.16 247.344 100.599 248.154 95.9458 248.519V231.908C94.9457 233.273 93.5392 234.646 91.644 235.443C90.8582 235.774 89.7299 236.09 88.4399 236.277C88.3333 232.859 88.2716 229.788 88.2388 227.086L93.6108 219.303C93.8152 219.006 93.7412 218.6 93.4448 218.396C93.1483 218.191 92.7422 218.266 92.5376 218.563L88.2163 224.82C88.1662 218.214 88.2647 214.257 88.1343 213.343C88.0041 212.953 86.8349 212.953 86.4448 213.343C86.2726 213.518 86.2088 218.455 86.0132 226.761L81.6587 220.135C81.4608 219.834 81.0565 219.75 80.7554 219.947C80.4548 220.145 80.3712 220.55 80.5688 220.851L85.9585 229.053C85.9022 231.315 85.8317 233.787 85.7515 236.445C83.6293 236.396 81.4087 235.888 79.6841 234.533C76.044 231.673 75.2632 229.983 75.2632 226.473C75.2632 222.963 76.3037 220.883 76.6938 219.843C77.0838 218.803 74.874 218.802 75.7837 213.343C78.1236 208.273 79.6839 209.182 80.9839 208.273C80.0739 207.493 79.6839 197.742 87.2241 197.742C90.4742 197.742 93.7239 202.032 92.9438 206.193C94.8939 206.193 96.3246 207.102 97.4946 209.702C98.6338 212.234 97.556 217.848 97.4985 219.221L118.696 201.878L139.378 220.492V244.276H145.517V162.582H195.891V244.276ZM254.984 251.017C259.448 251.983 262.751 252.995 263.471 253.584C263.234 253.996 260.123 255.641 255.319 257.496C255.191 255.266 255.08 253.105 254.984 251.017ZM155.539 240.256H166.529V224.991H155.539V240.256ZM104.218 239.783H113.988V225.739H104.218V239.783ZM206.08 239.783H214.627V225.435H206.08V239.783ZM219.512 239.783H228.06V225.435H219.512V239.783ZM253.363 184.817C259.316 185.427 262.217 190.464 261.454 194.891C263.438 194.891 265.88 194.891 267.865 198.859C269.849 202.828 267.56 206.949 266.186 208.171C267.865 209.087 270.001 211.072 270.459 215.651C270.704 220.047 268.781 222.062 267.865 223.131C268.577 225.421 269.147 231.343 265.728 234.274C261.909 237.547 257.846 237.652 254.52 237.637C254.454 234.802 254.411 232.187 254.387 229.81L260.613 220.791C260.817 220.495 260.742 220.088 260.446 219.884C260.149 219.68 259.743 219.755 259.539 220.051L254.368 227.542C254.316 219.72 254.425 214.912 254.275 213.858C254.122 213.4 252.749 213.4 252.291 213.858C252.092 214.063 252.015 220.042 251.794 229.835L246.577 221.895C246.379 221.594 245.974 221.51 245.673 221.707C245.373 221.905 245.289 222.31 245.487 222.611L251.742 232.13C251.701 233.871 251.654 235.716 251.602 237.654C247.221 237.662 239.273 236.806 237.03 223.741C235.351 219.467 233.366 213.209 239.625 206.034C237.945 204.05 236.724 201.76 238.25 197.943C239.472 194.891 242.525 194.433 244.205 194.433C243.899 192.753 243.441 184.817 253.363 184.817ZM155.539 206.2H166.529V193.378H155.539V206.2ZM174.771 206.2H185.762V193.378H174.771V206.2ZM155.539 185.746H166.529V172.923H155.539V185.746ZM174.771 185.746H185.762V172.923H174.771V185.746Z" fill="#5DA145"/>
</g>
</g>
</g>
</svg>
