<svg width="1169" height="329" viewBox="0 0 1169 329" fill="none" xmlns="http://www.w3.org/2000/svg">
<g id="Final Logo Package">
<g id="MNENA-logo-blue-bkg-long">
<rect id="Rectangle 70" width="1169" height="329" fill="#004447"/>
<g id="Frame 29">
<circle id="Ellipse 9" cx="156.677" cy="164.677" r="127.677" fill="white"/>
<g id="MNENA-logo-3Color-knockout">
<path id="Vector 64" d="M108.493 222.088C110.173 221.528 121.372 219.288 126.412 218.728C131.452 218.168 151.612 223.768 160.571 225.448C169.531 227.128 188.011 231.608 195.291 230.488C201.115 229.592 204.81 228.621 205.93 228.248" stroke="#004747" stroke-width="4.4799" stroke-linecap="round"/>
<path id="Subtract" d="M165.488 63.6956C165.757 63.8793 166.158 64.0809 166.627 64.3176C168.559 65.2923 171.671 66.8631 171.72 70.2375C183.777 73.086 197.926 82.7015 203.012 96.4573C221.628 101.046 237.177 106.161 238.386 106.696C240.62 107.683 247.2 109.001 247.318 116.461C247.435 123.923 247.318 201.077 247.318 204.917C247.318 208.758 247.318 217.536 240.736 229.056C232.076 241.76 205.593 252.866 164.928 267.569C160.653 269.114 152.705 268.556 149.767 267.569C128.376 260.379 88.0634 245.185 73.4894 229.056C69.1171 224.217 66.6721 215.231 66.672 204.917V116.461C66.672 112.182 69.4934 108.891 73.4894 107.793C75.7172 107.181 92.282 101.437 111.375 96.4641C116.87 81.2976 132.552 72.9932 142.154 70.3313C142.143 70.3272 142.131 70.3228 142.119 70.3186C142.119 66.8164 145.048 65.2348 146.858 64.2571C147.247 64.0465 147.586 63.8633 147.831 63.6956V69.3723L147.832 69.3733V61.3303H165.488V63.6956ZM156.086 76.26C135.006 76.2603 117.844 93.1026 117.212 114.119C115.061 114.131 112.938 114.145 110.863 114.161C103.006 114.222 95.8309 114.313 90.3907 114.448C87.6721 114.516 85.3787 114.596 83.6476 114.689C82.7829 114.735 82.0496 114.785 81.4708 114.84C80.9136 114.893 80.4358 114.955 80.1193 115.038C76.0919 116.1 73.1329 119.341 73.1329 123.624V202.678C73.133 211.85 75.3882 220.06 79.6476 224.586C86.4725 231.838 99.2095 238.79 112.558 244.694C125.949 250.616 140.113 255.549 149.925 258.715C151.411 259.195 154.008 259.502 156.678 259.547C159.355 259.592 162.277 259.376 164.41 258.719C181.447 253.47 196.872 247.78 209.043 241.993C221.161 236.232 230.229 230.294 234.358 224.48L234.381 224.448L234.401 224.412C240.56 214.063 240.569 206.137 240.569 202.678C240.569 199.309 240.676 130.181 240.568 123.608C240.508 119.951 238.767 117.742 236.773 116.374C234.892 115.085 232.604 114.469 231.781 114.12C231.6 114.043 231.392 114.003 231.237 113.978C231.06 113.949 230.849 113.923 230.613 113.902C230.141 113.858 229.521 113.822 228.778 113.792C227.289 113.732 225.252 113.694 222.796 113.674C217.881 113.633 211.246 113.661 203.852 113.715C201.441 113.733 198.95 113.755 196.41 113.777C195.55 93.2537 177.638 76.7946 157.091 76.2727L156.086 76.26ZM222.779 115.668C225.229 115.689 227.24 115.726 228.697 115.784C229.427 115.814 230.008 115.848 230.43 115.887C230.641 115.906 230.801 115.926 230.915 115.945C231.052 115.967 231.056 115.978 231.002 115.955C232.225 116.475 233.974 116.872 235.645 118.018C237.202 119.086 238.528 120.736 238.575 123.64C238.683 130.191 238.575 199.284 238.575 202.678C238.575 205.968 238.583 213.465 232.708 223.357C228.894 228.704 220.269 234.448 208.187 240.193C196.133 245.924 180.808 251.581 163.823 256.814C161.987 257.379 159.311 257.598 156.711 257.554C154.105 257.51 151.742 257.206 150.537 256.818C140.758 253.662 126.667 248.753 113.364 242.87C100.019 236.968 87.6209 230.15 81.0988 223.22C77.3498 219.236 75.1271 211.643 75.1271 202.678V123.624C75.1271 120.383 77.336 117.834 80.6271 116.966C80.7677 116.929 81.0966 116.878 81.6583 116.824C82.1992 116.773 82.9023 116.725 83.754 116.679C85.4571 116.587 87.7288 116.508 90.4406 116.441C95.8632 116.305 103.024 116.215 110.879 116.155C126.587 116.034 145.055 116.034 157.919 116.034C171.217 116.034 189.086 115.817 203.866 115.708C211.26 115.654 217.881 115.628 222.779 115.668ZM116.427 128.781V144.771H119.456V137.333C119.456 136.48 119.387 134.778 119.248 132.226H119.347L123.197 144.771H126.303L130.427 132.247H130.525C130.437 134.26 130.387 135.499 130.372 135.966C130.365 136.433 130.36 136.845 130.36 137.202V144.771H133.522V128.781H128.906L124.893 141.008H124.826L121.042 128.781H116.427ZM137.558 144.771H140.587V137.246C140.587 136.335 140.518 134.81 140.379 132.674H140.478L147.434 144.771H151.743V128.781H148.692V136.349C148.692 137.209 148.746 138.679 148.856 140.757H148.779L141.834 128.781H137.558V144.771ZM155.778 144.771H164.988V141.971H159.169V137.848H164.583V135.07H159.169V131.559H164.988V128.781H155.778V144.771ZM168.335 144.771H171.364V137.246C171.364 136.335 171.295 134.81 171.156 132.674H171.255L178.211 144.771H182.521V128.781H179.469V136.349C179.469 137.209 179.524 138.679 179.633 140.757H179.557L172.611 128.781H168.335V144.771ZM184.543 144.771H188.196L189.356 140.964H195.186L196.345 144.771H199.998L194.332 128.715H190.188L184.543 144.771ZM192.276 131.198C192.335 131.46 192.429 131.818 192.561 132.27C192.699 132.723 193.305 134.673 194.376 138.121H190.209C191.347 134.439 192.036 132.131 192.276 131.198ZM156.086 78.2532C175.882 78.2534 193.274 93.8594 194.394 113.327H119.239C120.271 93.7756 136.381 78.2535 156.086 78.2532ZM131.205 98.3313C129.931 100.313 127.638 105.323 128.091 108.379H150.735L131.205 98.3313ZM162.068 108.379H184.712C185.165 105.323 182.873 100.313 181.599 98.3313L162.068 108.379ZM140.12 89.2727C138.054 90.4039 134.035 94.0847 132.761 96.3489C136.49 98.3797 146.326 103.007 152.291 106.256L140.12 89.2727ZM160.512 106.256C166.477 103.007 176.313 98.3797 180.042 96.3489C178.768 94.0847 174.749 90.4039 172.683 89.2727L160.512 106.256ZM154.981 84.7444C152.628 84.6012 144.973 86.1113 142.526 87.9993C145.074 91.6791 150.735 99.8875 154.981 105.69V84.7444ZM157.821 84.7444V105.69C162.067 99.8876 167.728 91.6792 170.276 87.9993C167.829 86.1112 160.173 84.601 157.821 84.7444Z" fill="#004447"/>
<path id="Bottom River" d="M129.212 239.409C147.132 239.409 164.021 244.914 172.892 246.688C181.292 248.368 187.415 248.725 196.971 245.008C199.321 244.095 201.396 243.24 203.234 242.448C201.454 243.263 199.555 244.116 197.531 245.008C178.67 251.728 165.791 257.888 156.271 257.888C146.191 256.768 127.563 248.847 121.932 246.688C120.536 246.153 118.193 245.111 115.389 243.802C117.555 242.759 122.678 239.409 129.212 239.409ZM124.172 226.529C144.332 226.529 177.393 236.985 182.971 237.729C191.371 238.849 200.316 238.222 205.37 237.169C218.81 234.369 224.41 230.449 226.65 229.329C225.836 230.55 221.566 233.545 211.486 238.531C212.34 238.077 213.082 237.664 213.73 237.291L214.535 236.817C206.959 241.161 192.36 243.421 184.091 242.87C168.93 241.859 148.252 232.688 125.853 233.808C115.316 234.335 108.834 237.563 105.26 238.9C97.7432 235.147 90.6039 231.335 90.0129 230.449C93.1862 228.769 112.524 226.529 124.172 226.529Z" fill="#479FB3"/>
<path id="Trees buildings" d="M174.173 218.031H177.508V199.571L190.321 187.898L202.629 199.571V221.177C206.617 221.177 211.225 221.753 215.169 222.472C215.095 224.57 215.01 226.755 214.914 229.013C209.371 230.861 202.071 232.604 195.017 232.49C186.4 232.349 175.398 230.169 166.012 227.992V203.469H158.349V226.148C155.716 225.498 153.374 224.913 151.464 224.458C143.715 222.613 133.558 220.918 125.411 220.356H125.467V204.292H117.775V220.182C110.639 220.303 103.553 220.904 100.105 221.174V208.865C99.3634 209.876 98.3206 210.892 96.9161 211.484C96.3339 211.729 95.4979 211.963 94.5421 212.102C94.463 209.568 94.418 207.292 94.3937 205.29L98.3741 199.523C98.5254 199.303 98.4703 199.003 98.2511 198.851C98.0314 198.699 97.7299 198.754 97.5782 198.974L94.3761 203.611C94.339 198.715 94.4122 195.783 94.3156 195.106C94.2192 194.817 93.3527 194.817 93.0636 195.106C92.936 195.236 92.8882 198.895 92.7433 205.049L89.5167 200.139C89.3701 199.916 89.0699 199.854 88.8468 200C88.6241 200.147 88.5616 200.447 88.7081 200.67L92.7023 206.749C92.6605 208.425 92.6093 210.256 92.5499 212.226C90.9771 212.189 89.3311 211.814 88.0529 210.81C85.3553 208.69 84.7765 207.437 84.7765 204.836C84.7765 202.235 85.548 200.693 85.837 199.922C86.1252 199.152 84.4882 199.151 85.1622 195.106C86.8962 191.349 88.0524 192.022 89.0157 191.348C88.3414 190.769 88.0531 183.544 93.6407 183.544C96.0492 183.544 98.4577 186.723 97.88 189.806C99.325 189.806 100.385 190.481 101.252 192.407C102.096 194.283 101.298 198.442 101.255 199.461L116.965 186.61L132.292 200.404V218.031H136.842V157.488H174.173V218.031ZM217.965 223.027C221.274 223.743 223.723 224.492 224.256 224.928C224.081 225.233 221.776 226.452 218.216 227.826C218.121 226.174 218.036 224.574 217.965 223.027ZM144.268 215.05H152.413V203.738H144.268V215.05ZM181.723 214.7H188.058V204.067H181.723V214.7ZM191.678 214.7H198.013V204.067H191.678V214.7ZM106.235 214.699H113.476V204.292H106.235V214.699ZM216.765 173.965C221.176 174.418 223.325 178.15 222.76 181.431C224.231 181.431 226.041 181.431 227.512 184.372C228.982 187.313 227.285 190.368 226.267 191.273C227.511 191.951 229.095 193.423 229.435 196.817C229.615 200.074 228.191 201.568 227.512 202.36C228.04 204.057 228.461 208.446 225.928 210.617C223.098 213.043 220.087 213.121 217.622 213.111C217.573 211.009 217.542 209.07 217.525 207.308L222.137 200.625C222.288 200.406 222.233 200.105 222.014 199.953C221.794 199.802 221.493 199.857 221.341 200.076L217.51 205.626C217.472 199.83 217.551 196.267 217.44 195.487C217.326 195.148 216.31 195.148 215.97 195.487C215.822 195.635 215.766 200.067 215.603 207.328L211.735 201.443C211.589 201.22 211.289 201.158 211.066 201.304C210.843 201.451 210.781 201.751 210.927 201.974L215.564 209.03C215.533 210.319 215.497 211.685 215.459 213.121C212.212 213.127 206.323 212.493 204.66 202.812C203.416 199.644 201.945 195.006 206.583 189.69C205.339 188.219 204.433 186.522 205.565 183.694C206.47 181.431 208.732 181.092 209.977 181.092C209.75 179.848 209.412 173.965 216.765 173.965ZM144.268 189.813H152.413V180.31H144.268V189.813ZM158.521 189.813H166.666V180.31H158.521V189.813ZM144.268 174.654H152.413V165.151H144.268V174.654ZM158.521 174.654H166.666V165.151H158.521V174.654Z" fill="#5DA145"/>
</g>
</g>
<g id="Group 26">
<path id="NEIGHBORHOOD ASSOCIATION" d="M345.329 225.811H340.225L319.207 193.534H318.997C319.277 197.322 319.417 200.795 319.417 203.951V225.811H315.287V187.352H320.338L341.304 219.498H341.514C341.479 219.024 341.4 217.507 341.278 214.947C341.155 212.369 341.111 210.528 341.146 209.423V187.352H345.329V225.811ZM377.343 225.811H355.904V187.352H377.343V191.324H360.376V203.714H376.317V207.66H360.376V221.813H377.343V225.811ZM385.892 225.811V187.352H390.364V225.811H385.892ZM417.854 205.661H430.928V224.364C428.893 225.013 426.824 225.504 424.719 225.838C422.615 226.171 420.177 226.337 417.406 226.337C411.584 226.337 407.051 224.61 403.806 221.155C400.562 217.683 398.94 212.825 398.94 206.582C398.94 202.583 399.738 199.085 401.334 196.086C402.947 193.069 405.262 190.772 408.278 189.194C411.295 187.598 414.828 186.8 418.879 186.8C422.983 186.8 426.806 187.554 430.349 189.062L428.613 193.008C425.14 191.535 421.799 190.798 418.59 190.798C413.908 190.798 410.251 192.193 407.621 194.981C404.99 197.769 403.675 201.636 403.675 206.582C403.675 211.773 404.937 215.71 407.463 218.393C410.006 221.076 413.732 222.418 418.643 222.418C421.308 222.418 423.913 222.111 426.456 221.497V209.66H417.854V205.661ZM469.387 225.811H464.915V207.713H444.659V225.811H440.187V187.352H444.659V203.714H464.915V187.352H469.387V225.811ZM479.961 187.352H490.826C495.929 187.352 499.621 188.115 501.9 189.641C504.18 191.167 505.32 193.578 505.32 196.875C505.32 199.155 504.68 201.04 503.4 202.531C502.137 204.004 500.287 204.96 497.849 205.398V205.661C503.689 206.661 506.609 209.73 506.609 214.868C506.609 218.305 505.443 220.989 503.11 222.918C500.796 224.847 497.551 225.811 493.377 225.811H479.961V187.352ZM484.433 203.82H491.799C494.956 203.82 497.227 203.329 498.612 202.347C499.998 201.347 500.69 199.672 500.69 197.322C500.69 195.165 499.919 193.613 498.375 192.666C496.832 191.701 494.377 191.219 491.01 191.219H484.433V203.82ZM484.433 207.608V221.997H492.457C495.561 221.997 497.893 221.401 499.454 220.208C501.032 218.998 501.821 217.113 501.821 214.552C501.821 212.167 501.015 210.414 499.401 209.291C497.805 208.169 495.368 207.608 492.088 207.608H484.433ZM548.277 206.529C548.277 212.685 546.717 217.525 543.595 221.05C540.491 224.575 536.168 226.337 530.626 226.337C524.962 226.337 520.586 224.61 517.5 221.155C514.431 217.683 512.896 212.79 512.896 206.477C512.896 200.216 514.439 195.367 517.526 191.929C520.613 188.475 524.997 186.747 530.679 186.747C536.203 186.747 540.517 188.501 543.621 192.008C546.725 195.516 548.277 200.356 548.277 206.529ZM517.631 206.529C517.631 211.738 518.736 215.692 520.946 218.393C523.173 221.076 526.4 222.418 530.626 222.418C534.888 222.418 538.106 221.076 540.281 218.393C542.455 215.71 543.542 211.755 543.542 206.529C543.542 201.356 542.455 197.436 540.281 194.77C538.123 192.087 534.923 190.746 530.679 190.746C526.417 190.746 523.173 192.096 520.946 194.797C518.736 197.48 517.631 201.391 517.631 206.529ZM561.351 209.817V225.811H556.879V187.352H567.428C572.146 187.352 575.627 188.255 577.871 190.062C580.134 191.868 581.265 194.586 581.265 198.217C581.265 203.302 578.687 206.74 573.531 208.528L583.974 225.811H578.687L569.375 209.817H561.351ZM561.351 205.977H567.481C570.637 205.977 572.952 205.354 574.425 204.109C575.898 202.846 576.635 200.961 576.635 198.453C576.635 195.91 575.881 194.078 574.373 192.955C572.882 191.833 570.48 191.272 567.165 191.272H561.351V205.977ZM619.382 225.811H614.91V207.713H594.654V225.811H590.183V187.352H594.654V203.714H614.91V187.352H619.382V225.811ZM663.339 206.529C663.339 212.685 661.778 217.525 658.656 221.05C655.552 224.575 651.229 226.337 645.688 226.337C640.023 226.337 635.648 224.61 632.561 221.155C629.492 217.683 627.958 212.79 627.958 206.477C627.958 200.216 629.501 195.367 632.587 191.929C635.674 188.475 640.058 186.747 645.74 186.747C651.264 186.747 655.579 188.501 658.683 192.008C661.787 195.516 663.339 200.356 663.339 206.529ZM632.693 206.529C632.693 211.738 633.797 215.692 636.007 218.393C638.234 221.076 641.461 222.418 645.688 222.418C649.949 222.418 653.167 221.076 655.342 218.393C657.516 215.71 658.604 211.755 658.604 206.529C658.604 201.356 657.516 197.436 655.342 194.77C653.185 192.087 649.984 190.746 645.74 190.746C641.479 190.746 638.234 192.096 636.007 194.797C633.797 197.48 632.693 201.391 632.693 206.529ZM705.323 206.529C705.323 212.685 703.762 217.525 700.64 221.05C697.536 224.575 693.213 226.337 687.672 226.337C682.007 226.337 677.632 224.61 674.545 221.155C671.476 217.683 669.942 212.79 669.942 206.477C669.942 200.216 671.485 195.367 674.571 191.929C677.658 188.475 682.042 186.747 687.724 186.747C693.248 186.747 697.563 188.501 700.667 192.008C703.771 195.516 705.323 200.356 705.323 206.529ZM674.677 206.529C674.677 211.738 675.781 215.692 677.991 218.393C680.218 221.076 683.445 222.418 687.672 222.418C691.933 222.418 695.151 221.076 697.326 218.393C699.5 215.71 700.588 211.755 700.588 206.529C700.588 201.356 699.5 197.436 697.326 194.77C695.169 192.087 691.968 190.746 687.724 190.746C683.463 190.746 680.218 192.096 677.991 194.797C675.781 197.48 674.677 201.391 674.677 206.529ZM744.624 206.213C744.624 212.562 742.896 217.42 739.441 220.787C736.004 224.136 731.05 225.811 724.579 225.811H713.925V187.352H725.71C731.69 187.352 736.337 189.01 739.652 192.324C742.966 195.639 744.624 200.268 744.624 206.213ZM739.888 206.371C739.888 201.356 738.626 197.576 736.1 195.034C733.593 192.491 729.857 191.219 724.894 191.219H718.397V221.944H723.842C729.173 221.944 733.181 220.638 735.864 218.025C738.547 215.394 739.888 211.51 739.888 206.371ZM791.395 225.811L786.607 213.579H771.192L766.457 225.811H761.933L777.137 187.194H780.899L796.025 225.811H791.395ZM785.213 209.554L780.741 197.638C780.163 196.13 779.566 194.279 778.953 192.087C778.567 193.771 778.014 195.621 777.295 197.638L772.771 209.554H785.213ZM823.015 215.578C823.015 218.963 821.787 221.602 819.332 223.496C816.877 225.39 813.545 226.337 809.336 226.337C804.776 226.337 801.269 225.75 798.813 224.575V220.261C800.392 220.927 802.11 221.453 803.969 221.839C805.828 222.225 807.67 222.418 809.494 222.418C812.475 222.418 814.72 221.857 816.228 220.734C817.736 219.594 818.49 218.016 818.49 215.999C818.49 214.666 818.218 213.579 817.675 212.737C817.148 211.878 816.254 211.089 814.991 210.37C813.746 209.651 811.843 208.835 809.283 207.923C805.705 206.643 803.145 205.126 801.602 203.372C800.076 201.619 799.313 199.33 799.313 196.507C799.313 193.543 800.427 191.184 802.654 189.43C804.881 187.677 807.827 186.8 811.493 186.8C815.316 186.8 818.832 187.501 822.041 188.904L820.647 192.798C817.473 191.465 814.386 190.798 811.388 190.798C809.02 190.798 807.17 191.307 805.837 192.324C804.504 193.341 803.838 194.753 803.838 196.559C803.838 197.892 804.083 198.988 804.574 199.848C805.065 200.689 805.89 201.47 807.047 202.189C808.222 202.89 810.011 203.671 812.413 204.53C816.447 205.968 819.218 207.511 820.726 209.16C822.252 210.808 823.015 212.948 823.015 215.578ZM852.582 215.578C852.582 218.963 851.355 221.602 848.9 223.496C846.444 225.39 843.112 226.337 838.903 226.337C834.344 226.337 830.836 225.75 828.381 224.575V220.261C829.959 220.927 831.678 221.453 833.537 221.839C835.396 222.225 837.237 222.418 839.061 222.418C842.043 222.418 844.287 221.857 845.795 220.734C847.304 219.594 848.058 218.016 848.058 215.999C848.058 214.666 847.786 213.579 847.242 212.737C846.716 211.878 845.822 211.089 844.559 210.37C843.314 209.651 841.411 208.835 838.851 207.923C835.273 206.643 832.713 205.126 831.169 203.372C829.644 201.619 828.881 199.33 828.881 196.507C828.881 193.543 829.994 191.184 832.222 189.43C834.449 187.677 837.395 186.8 841.06 186.8C844.884 186.8 848.4 187.501 851.609 188.904L850.215 192.798C847.041 191.465 843.954 190.798 840.955 190.798C838.588 190.798 836.738 191.307 835.405 192.324C834.072 193.341 833.405 194.753 833.405 196.559C833.405 197.892 833.651 198.988 834.142 199.848C834.633 200.689 835.457 201.47 836.615 202.189C837.79 202.89 839.579 203.671 841.981 204.53C846.015 205.968 848.786 207.511 850.294 209.16C851.819 210.808 852.582 212.948 852.582 215.578ZM893.83 206.529C893.83 212.685 892.269 217.525 889.147 221.05C886.043 224.575 881.72 226.337 876.179 226.337C870.514 226.337 866.139 224.61 863.052 221.155C859.983 217.683 858.448 212.79 858.448 206.477C858.448 200.216 859.992 195.367 863.078 191.929C866.165 188.475 870.549 186.747 876.231 186.747C881.755 186.747 886.07 188.501 889.174 192.008C892.278 195.516 893.83 200.356 893.83 206.529ZM863.184 206.529C863.184 211.738 864.288 215.692 866.498 218.393C868.725 221.076 871.952 222.418 876.179 222.418C880.44 222.418 883.658 221.076 885.833 218.393C888.007 215.71 889.095 211.755 889.095 206.529C889.095 201.356 888.007 197.436 885.833 194.77C883.676 192.087 880.475 190.746 876.231 190.746C871.97 190.746 868.725 192.096 866.498 194.797C864.288 197.48 863.184 201.391 863.184 206.529ZM918.899 190.798C914.673 190.798 911.332 192.21 908.877 195.034C906.439 197.84 905.22 201.689 905.22 206.582C905.22 211.615 906.395 215.508 908.745 218.262C911.113 220.997 914.48 222.365 918.846 222.365C921.53 222.365 924.59 221.883 928.027 220.918V224.838C925.362 225.838 922.073 226.337 918.163 226.337C912.498 226.337 908.122 224.619 905.036 221.181C901.967 217.744 900.432 212.86 900.432 206.529C900.432 202.566 901.169 199.093 902.642 196.112C904.133 193.131 906.272 190.833 909.061 189.22C911.867 187.607 915.164 186.8 918.952 186.8C922.985 186.8 926.51 187.536 929.527 189.01L927.633 192.85C924.721 191.482 921.81 190.798 918.899 190.798ZM936.419 225.811V187.352H940.891V225.811H936.419ZM975.641 225.811L970.853 213.579H955.438L950.703 225.811H946.178L961.383 187.194H965.145L980.27 225.811H975.641ZM969.459 209.554L964.987 197.638C964.408 196.13 963.812 194.279 963.198 192.087C962.812 193.771 962.26 195.621 961.541 197.638L957.016 209.554H969.459ZM997.395 225.811H992.923V191.324H980.744V187.352H1009.57V191.324H997.395V225.811ZM1015.39 225.811V187.352H1019.86V225.811H1015.39ZM1063.82 206.529C1063.82 212.685 1062.26 217.525 1059.14 221.05C1056.03 224.575 1051.71 226.337 1046.17 226.337C1040.5 226.337 1036.13 224.61 1033.04 221.155C1029.97 217.683 1028.44 212.79 1028.44 206.477C1028.44 200.216 1029.98 195.367 1033.07 191.929C1036.15 188.475 1040.54 186.747 1046.22 186.747C1051.74 186.747 1056.06 188.501 1059.16 192.008C1062.27 195.516 1063.82 200.356 1063.82 206.529ZM1033.17 206.529C1033.17 211.738 1034.28 215.692 1036.49 218.393C1038.71 221.076 1041.94 222.418 1046.17 222.418C1050.43 222.418 1053.65 221.076 1055.82 218.393C1058 215.71 1059.08 211.755 1059.08 206.529C1059.08 201.356 1058 197.436 1055.82 194.77C1053.66 192.087 1050.46 190.746 1046.22 190.746C1041.96 190.746 1038.71 192.096 1036.49 194.797C1034.28 197.48 1033.17 201.391 1033.17 206.529ZM1102.46 225.811H1097.36L1076.34 193.534H1076.13C1076.41 197.322 1076.55 200.795 1076.55 203.951V225.811H1072.42V187.352H1077.47L1098.44 219.498H1098.65C1098.61 219.024 1098.53 217.507 1098.41 214.947C1098.29 212.369 1098.24 210.528 1098.28 209.423V187.352H1102.46V225.811Z" fill="#479FB3"/>
<path id="Marshall - New Era" d="M314.34 157V152.959L321.598 152.062V112.629L315.013 111.88V107.84H334.767L346.964 140.763L358.412 107.84H377.343V111.88L372.03 112.479C371.98 115.522 371.93 118.615 371.88 121.757C371.88 124.85 371.88 127.943 371.88 131.036V133.804C371.88 136.897 371.88 139.99 371.88 143.083C371.93 146.175 371.98 149.268 372.03 152.361L377.567 152.959V157H353.698V152.959L359.16 152.286C359.26 149.243 359.285 146.275 359.235 143.382C359.235 140.489 359.26 137.82 359.31 135.376L359.459 118.839L346.14 157H340.379L326.087 118.764L326.461 133.729V151.987L332.597 152.959V157H314.34ZM401.772 119.288L395.561 138.369H407.833L401.772 119.288ZM380.746 157V152.959L386.807 152.062L401.996 107.765H409.703L425.043 152.585L429.607 153.109V157H406.486V153.109L412.247 152.361L409.18 142.708H394.14L391.147 152.062L396.833 152.959V157H380.746ZM454.065 112.18H451.072C451.022 115.272 450.973 118.365 450.923 121.458C450.923 124.501 450.923 127.419 450.923 130.213H453.766C456.26 130.213 458.206 129.789 459.602 128.941C460.999 128.093 461.997 126.97 462.595 125.573C463.194 124.177 463.493 122.68 463.493 121.084C463.493 115.148 460.351 112.18 454.065 112.18ZM432.815 111.88V107.84H457.133C463.019 107.84 467.534 108.937 470.677 111.132C473.869 113.327 475.465 116.37 475.465 120.261C475.465 121.907 475.041 123.553 474.193 125.199C473.345 126.796 471.949 128.217 470.003 129.464C468.058 130.662 465.414 131.534 462.072 132.083C464.915 132.432 467.135 133.131 468.731 134.178C470.327 135.176 471.525 136.498 472.323 138.144C473.121 139.74 473.695 141.711 474.044 144.055L475.465 152.361L481.152 152.959V157C479.955 157.249 478.957 157.449 478.159 157.599C477.361 157.798 476.563 157.923 475.765 157.973C475.016 158.023 474.069 158.048 472.921 158.048C469.729 158.048 467.21 157.499 465.364 156.401C463.568 155.304 462.471 153.309 462.072 150.415L460.725 141.736C460.376 139.241 459.652 137.396 458.555 136.199C457.507 135.001 455.861 134.403 453.616 134.403H450.923C450.923 137.595 450.923 140.663 450.923 143.606C450.973 146.549 451.022 149.468 451.072 152.361L456.909 152.959V157H432.815V152.959L438.427 152.361C438.527 149.318 438.577 146.25 438.577 143.157C438.577 140.065 438.577 136.947 438.577 133.804V131.036C438.577 127.943 438.577 124.85 438.577 121.757C438.577 118.615 438.527 115.522 438.427 112.479L432.815 111.88ZM499.912 158.422C497.118 158.422 494.25 158.097 491.307 157.449C488.364 156.8 485.82 155.803 483.675 154.456L484.123 143.382H491.082L492.579 152.585C493.726 153.034 494.873 153.383 496.021 153.633C497.168 153.832 498.44 153.932 499.837 153.932C502.53 153.932 504.576 153.259 505.972 151.912C507.369 150.515 508.068 148.819 508.068 146.824C508.068 144.828 507.544 143.282 506.496 142.185C505.499 141.087 503.877 140.04 501.633 139.042L498.415 137.62C494.025 135.575 490.608 133.305 488.164 130.811C485.77 128.317 484.572 125 484.572 120.859C484.572 116.37 486.244 112.853 489.586 110.309C492.978 107.715 497.492 106.418 503.129 106.418C505.823 106.418 508.392 106.767 510.836 107.466C513.33 108.114 515.475 109.037 517.271 110.234L516.672 120.71H509.789L508.367 111.88C507.569 111.581 506.771 111.357 505.972 111.207C505.174 111.007 504.301 110.908 503.354 110.908C501.209 110.908 499.388 111.531 497.891 112.778C496.395 114.025 495.647 115.672 495.647 117.717C495.647 119.712 496.22 121.308 497.368 122.506C498.565 123.653 500.261 124.725 502.456 125.723L505.972 127.294C510.711 129.439 514.128 131.709 516.224 134.103C518.369 136.448 519.441 139.516 519.441 143.307C519.441 147.697 517.77 151.313 514.428 154.157C511.135 157 506.297 158.422 499.912 158.422ZM552.595 111.88V107.84H576.24V111.88L570.703 112.479C570.653 115.522 570.603 118.59 570.553 121.682C570.553 124.775 570.553 127.893 570.553 131.036V133.804C570.553 136.847 570.553 139.94 570.553 143.083C570.603 146.175 570.653 149.268 570.703 152.361L576.24 152.959V157H552.595V152.959L557.833 152.436C557.933 149.343 557.982 146.25 557.982 143.157C557.982 140.065 557.982 136.997 557.982 133.954H542.045C542.045 137.296 542.045 140.489 542.045 143.531C542.095 146.524 542.144 149.493 542.194 152.436L547.432 152.959V157H523.862V152.959L529.324 152.361C529.424 149.318 529.474 146.25 529.474 143.157C529.474 140.065 529.474 136.947 529.474 133.804V131.036C529.474 127.943 529.474 124.85 529.474 121.757C529.474 118.665 529.424 115.572 529.324 112.479L523.862 111.88V107.84H547.432V111.88L542.194 112.404C542.144 115.447 542.095 118.465 542.045 121.458C542.045 124.451 542.045 127.145 542.045 129.539H557.982C557.982 126.696 557.982 123.852 557.982 121.009C557.982 118.116 557.933 115.248 557.833 112.404L552.595 111.88ZM600.307 119.288L594.097 138.369H606.368L600.307 119.288ZM579.281 157V152.959L585.342 152.062L600.532 107.765H608.239L623.578 152.585L628.142 153.109V157H605.021V153.109L610.783 152.361L607.715 142.708H592.675L589.682 152.062L595.369 152.959V157H579.281ZM631.35 111.88V107.84H656.043V111.88L649.832 112.479C649.782 115.522 649.732 118.615 649.683 121.757C649.683 124.85 649.683 127.943 649.683 131.036V135.001C649.683 137.695 649.683 140.563 649.683 143.606C649.732 146.599 649.782 149.642 649.832 152.735H662.777L664.797 142.334H670.858L670.11 157H631.35V152.959L636.962 152.361C637.062 149.318 637.112 146.35 637.112 143.457C637.112 140.514 637.112 137.82 637.112 135.376V131.036C637.112 127.943 637.112 124.85 637.112 121.757C637.112 118.615 637.062 115.522 636.962 112.479L631.35 111.88ZM674.316 111.88V107.84H699.009V111.88L692.798 112.479C692.748 115.522 692.698 118.615 692.649 121.757C692.649 124.85 692.649 127.943 692.649 131.036V135.001C692.649 137.695 692.649 140.563 692.649 143.606C692.698 146.599 692.748 149.642 692.798 152.735H705.743L707.763 142.334H713.824L713.076 157H674.316V152.959L679.928 152.361C680.028 149.318 680.078 146.35 680.078 143.457C680.078 140.514 680.078 137.82 680.078 135.376V131.036C680.078 127.943 680.078 124.85 680.078 121.757C680.078 118.615 680.028 115.522 679.928 112.479L674.316 111.88ZM734.247 141.362V134.627H753.627V141.362H734.247ZM805.237 111.88V107.84H824.916V111.88L818.555 112.853V157.15H812.27L785.932 120.635V151.987L794.462 152.959V157H774.708V152.959L781.068 152.062V113.826L780.02 112.404L774.858 111.88V107.84H791.768L813.767 138.069V112.853L805.237 111.88ZM828.79 111.88V107.84H866.95L867.474 120.71H861.264L859.767 112.03H847.271C847.221 114.873 847.172 117.742 847.122 120.635C847.122 123.528 847.122 126.446 847.122 129.389H855.203L856.101 123.553H860.441V139.641H856.101L855.203 133.804H847.122C847.122 137.246 847.122 140.514 847.122 143.606C847.172 146.699 847.221 149.767 847.271 152.81H861.264L862.76 144.13H868.971L868.447 157H828.79V152.959L834.401 152.361C834.501 149.318 834.551 146.25 834.551 143.157C834.551 140.065 834.551 136.947 834.551 133.804V131.036C834.551 127.943 834.551 124.85 834.551 121.757C834.551 118.615 834.501 115.522 834.401 112.479L828.79 111.88ZM927.627 111.88V107.84H943.415V111.88L937.579 112.853L924.41 157.15H917.077L906.452 123.179L896.126 157.15H888.793L875.399 112.329L870.835 111.88V107.84H894.031V111.88L888.569 112.479L896.201 142.559L905.18 112.554L899.717 111.88V107.84H922.165V111.88L915.58 112.703L924.335 143.157L932.94 112.703L927.627 111.88ZM960.172 111.88V107.84H998.333L998.857 120.71H992.646L991.15 112.03H978.654C978.604 114.873 978.554 117.742 978.504 120.635C978.504 123.528 978.504 126.446 978.504 129.389H986.585L987.483 123.553H991.823V139.641H987.483L986.585 133.804H978.504C978.504 137.246 978.504 140.514 978.504 143.606C978.554 146.699 978.604 149.767 978.654 152.81H992.646L994.143 144.13H1000.35L999.83 157H960.172V152.959L965.784 152.361C965.884 149.318 965.934 146.25 965.934 143.157C965.934 140.065 965.934 136.947 965.934 133.804V131.036C965.934 127.943 965.934 124.85 965.934 121.757C965.934 118.615 965.884 115.522 965.784 112.479L960.172 111.88ZM1025.92 112.18H1022.93C1022.88 115.272 1022.83 118.365 1022.78 121.458C1022.78 124.501 1022.78 127.419 1022.78 130.213H1025.62C1028.12 130.213 1030.06 129.789 1031.46 128.941C1032.86 128.093 1033.85 126.97 1034.45 125.573C1035.05 124.177 1035.35 122.68 1035.35 121.084C1035.35 115.148 1032.21 112.18 1025.92 112.18ZM1004.67 111.88V107.84H1028.99C1034.88 107.84 1039.39 108.937 1042.53 111.132C1045.73 113.327 1047.32 116.37 1047.32 120.261C1047.32 121.907 1046.9 123.553 1046.05 125.199C1045.2 126.796 1043.81 128.217 1041.86 129.464C1039.92 130.662 1037.27 131.534 1033.93 132.083C1036.77 132.432 1038.99 133.131 1040.59 134.178C1042.19 135.176 1043.38 136.498 1044.18 138.144C1044.98 139.74 1045.55 141.711 1045.9 144.055L1047.32 152.361L1053.01 152.959V157C1051.81 157.249 1050.81 157.449 1050.02 157.599C1049.22 157.798 1048.42 157.923 1047.62 157.973C1046.87 158.023 1045.93 158.048 1044.78 158.048C1041.59 158.048 1039.07 157.499 1037.22 156.401C1035.43 155.304 1034.33 153.309 1033.93 150.415L1032.58 141.736C1032.23 139.241 1031.51 137.396 1030.41 136.199C1029.37 135.001 1027.72 134.403 1025.47 134.403H1022.78C1022.78 137.595 1022.78 140.663 1022.78 143.606C1022.83 146.549 1022.88 149.468 1022.93 152.361L1028.77 152.959V157H1004.67V152.959L1010.28 152.361C1010.38 149.318 1010.43 146.25 1010.43 143.157C1010.43 140.065 1010.43 136.947 1010.43 133.804V131.036C1010.43 127.943 1010.43 124.85 1010.43 121.757C1010.43 118.615 1010.38 115.522 1010.28 112.479L1004.67 111.88ZM1075.71 119.288L1069.5 138.369H1081.77L1075.71 119.288ZM1054.68 157V152.959L1060.75 152.062L1075.93 107.765H1083.64L1098.98 152.585L1103.55 153.109V157H1080.42V153.109L1086.19 152.361L1083.12 142.708H1068.08L1065.09 152.062L1070.77 152.959V157H1054.68Z" fill="white"/>
</g>
</g>
</g>
</svg>
